<?xml version="1.0" encoding="UTF-8"?>
<svg version="1.1" xmlns="http://www.w3.org/2000/svg" width="330" height="304">
<path d="M0 0 C11.89691683 0.38164888 23.58197267 1.33690183 35.38208008 2.90893555 C42.28100632 3.81880126 49.12510546 4.45242725 56.07421875 4.7890625 C59 5 59 5 61.38269043 5.48413086 C63.87157855 5.97468826 66.27601556 6.25920254 68.80273438 6.46484375 C69.7271936 6.54162354 70.65165283 6.61840332 71.60412598 6.69750977 C72.5907019 6.77670654 73.57727783 6.85590332 74.59375 6.9375 C75.61803101 7.02249756 76.64231201 7.10749512 77.69763184 7.19506836 C80.96486834 7.46612466 84.23238796 7.7335114 87.5 8 C91.80236255 8.3508772 96.10438998 8.70552023 100.40625 9.0625 C101.39282593 9.14169678 102.37940186 9.22089355 103.39587402 9.30249023 C104.32033325 9.37927002 105.24479248 9.4560498 106.19726562 9.53515625 C107.41041443 9.63389038 107.41041443 9.63389038 108.64807129 9.73461914 C111.13867572 10.01564753 113.54598617 10.49519307 116 11 C118.18875031 11.24156256 120.38069657 11.45494119 122.57421875 11.6484375 C124.51458008 11.82342773 124.51458008 11.82342773 126.49414062 12.00195312 C127.17710205 12.06261963 127.86006348 12.12328613 128.5637207 12.18579102 C139.39378616 13.15064913 150.20375165 14.20424534 161 15.5 C173.92968163 17.04279182 186.88533592 18.24675756 199.85122681 19.43296814 C211.08206994 20.46257792 222.3058598 21.56648512 233.53027344 22.66357422 C236.80349972 22.98094727 240.07735444 23.29060183 243.3515625 23.59765625 C245.19271331 23.77338533 247.03385952 23.94916264 248.875 24.125 C250.11491699 24.23823608 250.11491699 24.23823608 251.37988281 24.35375977 C256.88678246 24.88678246 256.88678246 24.88678246 258 26 C258.25875513 30.48508886 257.61064244 34.39694911 256.5625 38.75 C256.29566406 39.87921875 256.02882813 41.0084375 255.75390625 42.171875 C255 45 255 45 254 47 C253.34 47 252.68 47 252 47 C252 47.66 252 48.32 252 49 C251.34 49 250.68 49 250 49 C250 49.66 250 50.32 250 51 C248.64453125 52.33203125 248.64453125 52.33203125 246.8125 53.8125 C242.75214677 57.18521276 239.06318639 60.63304607 235.8125 64.8125 C235.214375 65.534375 234.61625 66.25625 234 67 C233.34 67 232.68 67 232 67 C232 67.66 232 68.32 232 69 C231.34 69 230.68 69 230 69 C230 69.66 230 70.32 230 71 C228.77734375 72.19921875 228.77734375 72.19921875 226.9375 73.6875 C221.66360687 78.13467475 216.90344989 83.07240197 212.10522461 88.02026367 C211.47495361 88.6619751 210.84468262 89.30368652 210.1953125 89.96484375 C209.62828613 90.5487085 209.06125977 91.13257324 208.47705078 91.73413086 C207 93 207 93 205 93 C205 93.66 205 94.32 205 95 C204.34 95 203.68 95 203 95 C203 95.66 203 96.32 203 97 C201.53125 98.4453125 201.53125 98.4453125 199.5 100.125 C195.6500766 103.37893881 192.13935665 106.84772718 188.6640625 110.49609375 C187 112 187 112 185 112 C185 112.66 185 113.32 185 114 C184.34 114 183.68 114 183 114 C183 114.66 183 115.32 183 116 C182.34 116 181.68 116 181 116 C180.67 116.99 180.34 117.98 180 119 C179.34 119 178.68 119 178 119 C178 119.66 178 120.32 178 121 C177.34 121 176.68 121 176 121 C176 121.66 176 122.32 176 123 C175.34 123 174.68 123 174 123 C174 123.66 174 124.32 174 125 C173.34 125 172.68 125 172 125 C172 125.66 172 126.32 172 127 C171.34 127 170.68 127 170 127 C170 127.66 170 128.32 170 129 C169.34 129 168.68 129 168 129 C168 129.66 168 130.32 168 131 C166.671875 132.3046875 166.671875 132.3046875 164.75 133.875 C160.23434706 137.68659953 156.13057084 141.83247727 152.03808594 146.08740234 C150.72804226 147.42774345 149.36771234 148.71855875 148 150 C147.34 150 146.68 150 146 150 C145.67 150.99 145.34 151.98 145 153 C143.29296875 154.68359375 143.29296875 154.68359375 141.1875 156.4375 C138.33240495 158.85689832 135.5947338 161.2971523 133 164 C139.24893268 162.99210763 145.08604116 161.37548406 151.0625 159.3125 C158.51461086 156.74575047 166.02810692 154.53506439 173.625 152.4375 C174.69733887 152.13432861 175.76967773 151.83115723 176.87451172 151.51879883 C181.45224685 150.22817376 186.00852215 148.96833406 190.66015625 147.97265625 C203.31498216 145.05036308 210.9472655 136.57910174 218 126 C218.66 126 219.32 126 220 126 C220 125.34 220 124.68 220 124 C220.66 124 221.32 124 222 124 C222.226875 123.46375 222.45375 122.9275 222.6875 122.375 C224.45570089 119.17539839 226.53670203 116.70962777 229 114 C229.66 114 230.32 114 231 114 C231 113.34 231 112.68 231 112 C231.66 112 232.32 112 233 112 C233 111.34 233 110.68 233 110 C233.66 110 234.32 110 235 110 C235.268125 109.4225 235.53625 108.845 235.8125 108.25 C237.02929189 105.94449957 238.30333879 103.97943808 240 102 C240.66 102 241.32 102 242 102 C242.26683594 101.41476563 242.53367187 100.82953125 242.80859375 100.2265625 C244.01937217 97.96379627 245.3536699 96.28116429 247.0625 94.375 C248.66378483 92.5818742 249.92328158 91.15343684 251 89 C253 88.3125 253 88.3125 255 88 C256 89 256 89 256.14453125 92.06640625 C255.99567733 96.11764664 255.426826 99.96457805 254.6875 103.9375 C253.47457794 110.76286667 252.51931271 117.58961895 251.703125 124.47265625 C249.92960828 139.00409308 247.83005651 153.48656478 245.72094727 167.97216797 C245.17200811 171.74273 244.62753233 175.51392122 244.08419228 179.28529358 C241.59325269 196.55968204 238.97972561 213.80163056 236 231 C231.77635672 232.27914743 227.75584515 233.28706617 223.3671875 233.74609375 C222.32498047 233.85953125 221.28277344 233.97296875 220.20898438 234.08984375 C219.10876953 234.20457031 218.00855469 234.31929687 216.875 234.4375 C208.72709426 235.32917478 200.6068485 236.28952536 192.5 237.5 C183.42938481 238.84595087 174.33792616 239.91906743 165.22607422 240.9453125 C159.68202317 241.57092182 154.15026086 242.22620768 148.625 243 C141.51726132 243.98402332 134.38697477 244.69945212 127.25 245.4375 C116.78716951 246.52672982 106.43946074 247.93044261 96.06689453 249.66357422 C88.35071129 250.9195275 80.61527343 251.93185649 72.8125 252.4375 C67.56255856 252.79872487 62.44023601 253.51392454 57.25 254.33984375 C44.60456417 256.29164493 31.90060987 257.69623922 19.1875 259.125 C15.68464389 259.52153152 12.18190685 259.91908445 8.67927551 260.31759644 C6.52243572 260.56269884 4.36545081 260.8065289 2.20829773 261.04885864 C-4.11466735 261.76386093 -10.39696067 262.6029262 -16.6875 263.5625 C-22.06678202 264.21773671 -27.60101025 264.49006215 -33 264 C-35 262 -35 262 -35.44140625 259.328125 C-34.8360534 254.76387167 -32.75114118 252.2908901 -29.9375 248.75 C-28.92600632 247.43181531 -27.91559162 246.112802 -26.90625 244.79296875 C-26.40996094 244.15149902 -25.91367187 243.5100293 -25.40234375 242.84912109 C-22.90287318 239.55333592 -20.62961988 236.10321816 -18.33984375 232.66015625 C-17.89769531 232.11230469 -17.45554687 231.56445312 -17 231 C-16.34 231 -15.68 231 -15 231 C-14.7421875 230.28457031 -14.484375 229.56914062 -14.21875 228.83203125 C-12.92615235 225.82839889 -11.3722291 223.36494628 -9.5 220.6875 C-8.8915625 219.80449219 -8.283125 218.92148438 -7.65625 218.01171875 C-7.1096875 217.34785156 -6.563125 216.68398437 -6 216 C-5.34 216 -4.68 216 -4 216 C-3.73952881 215.27167969 -3.47905762 214.54335937 -3.21069336 213.79296875 C-1.96668562 210.9231465 -0.53013634 208.788473 1.37109375 206.3125 C2.35625977 205.01699219 2.35625977 205.01699219 3.36132812 203.6953125 C4.04646484 202.80585938 4.73160156 201.91640625 5.4375 201 C6.7925659 199.23085058 8.14550277 197.46006799 9.49609375 195.6875 C10.39606079 194.51767578 10.39606079 194.51767578 11.31420898 193.32421875 C13.07748918 190.98175125 13.07748918 190.98175125 14.59399414 188.20703125 C15.05797607 187.47871094 15.52195801 186.75039062 16 186 C16.66 186 17.32 186 18 186 C18.28875 185.236875 18.5775 184.47375 18.875 183.6875 C20 181 20 181 22 178 C22.66 178 23.32 178 24 178 C24.66 176.35 25.32 174.7 26 173 C26.66 173 27.32 173 28 173 C28.33 171.68 28.66 170.36 29 169 C29.66 169 30.32 169 31 169 C31.28875 168.236875 31.5775 167.47375 31.875 166.6875 C33 164 33 164 35 161 C35.66 161 36.32 161 37 161 C37.2475 160.29488281 37.495 159.58976563 37.75 158.86328125 C39.16103659 155.63112557 40.9250726 153.03671098 43 150.1875 C43.70125 149.21167969 44.4025 148.23585937 45.125 147.23046875 C45.74375 146.49441406 46.3625 145.75835937 47 145 C47.66 145 48.32 145 49 145 C49.268125 144.43796875 49.53625 143.8759375 49.8125 143.296875 C51.0803979 140.84449354 52.48972342 138.56072317 54 136.25 C54.7734375 135.05117188 54.7734375 135.05117188 55.5625 133.828125 C56.036875 133.22484375 56.51125 132.6215625 57 132 C57.66 132 58.32 132 59 132 C59.20625 131.34 59.4125 130.68 59.625 130 C61.49124252 125.92819814 63.97561527 122.31203002 67 119 C67.66 119 68.32 119 69 119 C69.2578125 118.28457031 69.515625 117.56914062 69.78125 116.83203125 C71.07384765 113.82839889 72.6277709 111.36494628 74.5 108.6875 C75.1084375 107.80449219 75.716875 106.92148438 76.34375 106.01171875 C76.8903125 105.34785156 77.436875 104.68398437 78 104 C78.66 104 79.32 104 80 104 C80.20625 103.34 80.4125 102.68 80.625 102 C82.49124252 97.92819814 84.97561527 94.31203002 88 91 C88.66 91 89.32 91 90 91 C90.268125 90.4225 90.53625 89.845 90.8125 89.25 C92.01800803 86.96587952 93.43135523 85.04568469 95 83 C90.74022161 83.43259398 86.48843378 83.89525874 82.23828125 84.4140625 C78.77408862 84.83062209 75.33986533 85.10171366 71.85546875 85.2734375 C62.69103412 85.82204435 62.69103412 85.82204435 55.37890625 90.79296875 C53.50790206 93.90702217 52.20716828 97.21160235 50.93945312 100.60791016 C49.50658205 104.2563693 47.765448 107.74423114 46.04907227 111.26611328 C44.74247643 113.94958983 43.4661148 116.64525125 42.19921875 119.34765625 C37.11144932 130.12302088 37.11144932 130.12302088 33.8125 134.375 C33.28269531 135.06335938 32.75289063 135.75171875 32.20703125 136.4609375 C31.80871094 136.96882812 31.41039063 137.47671875 31 138 C29.1875 137.9375 29.1875 137.9375 27 137 C23.66207456 130.96115779 22.28808351 124.07583125 20.5625 117.4375 C18.34855694 109.01456607 16.06951166 100.61869889 13.65097046 92.25204468 C12.89072163 89.62194942 12.13248289 86.99127791 11.37426758 84.3605957 C9.13217891 76.58377539 6.8870081 68.80784531 4.64160156 61.03198242 C4.31901367 59.91476807 3.99642578 58.79755371 3.6640625 57.64648438 C3.3428241 56.53423492 3.02158569 55.42198547 2.69061279 54.27603149 C2.05161543 52.06057768 1.41394492 49.8447407 0.77764893 47.62850952 C-0.73912876 42.34745703 -2.27204402 37.07261679 -3.84863281 31.80908203 C-4.13445221 30.84301529 -4.42027161 29.87694855 -4.7147522 28.88160706 C-5.24930691 27.07625049 -5.79147638 25.27312437 -6.34262085 23.47276306 C-6.57711945 22.67487869 -6.81161804 21.87699432 -7.05322266 21.05493164 C-7.26129547 20.36436172 -7.46936829 19.67379181 -7.68374634 18.96229553 C-8.36135406 14.75786485 -6.31563239 11.40995029 -4.4375 7.75 C-3.98246094 6.85796875 -3.52742188 5.9659375 -3.05859375 5.046875 C-2.53458984 4.03367187 -2.53458984 4.03367187 -2 3 C-1.34 3 -0.68 3 0 3 C0 2.01 0 1.02 0 0 Z M17 17 C20.52908025 38.6362124 26.74291823 59.89702094 32.22407532 81.09977722 C33.50578857 86.06095715 34.76342522 91.02736808 36 96 C38.62514884 92.89465228 39.72013549 90.14387726 40.8125 86.24609375 C46.12414468 69.14927653 46.12414468 69.14927653 50.89013672 65.58740234 C55.47639777 63.80440432 60.25394218 63.94140683 65.11425781 64.02050781 C70.55128802 63.98186902 75.92225477 63.15978125 81.3125 62.5 C83.61948607 62.24977049 85.9267802 62.00236473 88.234375 61.7578125 C95.39972647 60.97506019 102.53612553 60.02229061 109.67114258 59.00195312 C115.43601491 58.18316596 121.20211256 57.53751168 127 57 C117.27994931 71.75296231 117.27994931 71.75296231 113.375 76.8125 C110.80083956 79.604791 110.80083956 79.604791 111 82 C110.34 82 109.68 82 109 82 C107.20973372 84.37263772 107.20973372 84.37263772 105.4375 87.3125 C104.81746094 88.29863281 104.19742188 89.28476563 103.55859375 90.30078125 C101.90072608 92.96359748 101.90072608 92.96359748 101 96 C100.34 96 99.68 96 99 96 C97.63362347 97.71801282 97.63362347 97.71801282 96.375 99.875 C95.70597656 100.95394531 95.70597656 100.95394531 95.0234375 102.0546875 C93.84480002 103.92864762 93.84480002 103.92864762 94 106 C93.34 106 92.68 106 92 106 C90.55468935 107.97223239 90.55468935 107.97223239 89.0625 110.5625 C86.20577273 115.18263916 83.18048841 119.58123816 79.9375 123.9375 C75.36047278 130.11299593 70.86921725 136.34430705 66.4375 142.625 C65.82962646 143.47827881 65.22175293 144.33155762 64.59545898 145.21069336 C64.02641846 146.02030518 63.45737793 146.82991699 62.87109375 147.6640625 C62.36505615 148.38029785 61.85901855 149.0965332 61.33764648 149.83447266 C59.90966975 152.14623642 58.93720221 154.45413385 58 157 C57.34 157 56.68 157 56 157 C55.2575 158.3921875 55.2575 158.3921875 54.5 159.8125 C52.08405943 164.03829152 49.22043037 167.87713048 46.33203125 171.7890625 C43.21173872 176.08534468 40.22438532 180.46727716 37.23291016 184.85375977 C34.88512816 188.28705338 32.51293961 191.69693822 30.07421875 195.06640625 C29.60999512 195.70795654 29.14577148 196.34950684 28.66748047 197.01049805 C27.78134916 198.22984667 26.89120347 199.4462906 25.99658203 200.65942383 C23.70961648 203.53215053 23.70961648 203.53215053 23 207 C22.34 207 21.68 207 21 207 C20.34 208.98 19.68 210.96 19 213 C18.34 213 17.68 213 17 213 C15.45187749 215.10655309 15.45187749 215.10655309 13.875 217.8125 C10.67221007 223.01787647 7.18868285 227.91174204 3.50390625 232.78515625 C1.81274961 234.82957289 1.81274961 234.82957289 2 237 C14.28096573 236.32982614 26.46665032 235.048249 38.6875 233.6875 C40.72466421 233.46281262 42.76185537 233.23836937 44.79907227 233.01416016 C48.90726155 232.56150064 53.01523332 232.10693501 57.12304688 231.65087891 C62.48237329 231.05633341 67.84261137 230.47044502 73.203125 229.88671875 C86.64997635 228.41815539 100.07864462 226.89982463 113.48266602 225.07373047 C122.09349054 223.92956414 130.73321186 223.11834829 139.38110352 222.31323242 C148.21217253 221.49060934 157.01327002 220.54872306 165.8125 219.4375 C175.42836654 218.22999811 185.04008183 217.39578969 194.70581055 216.70336914 C203.83555063 216.04280683 212.91409972 215.10345559 222 214 C223.76741585 206.90526685 225.23769642 199.84290483 226.375 192.625 C227.44284948 185.92060816 228.76307387 179.31097208 230.25 172.6875 C232.46423851 162.75311285 234.4674654 152.78272678 236.38659668 142.78775024 C236.71143842 141.09986815 237.03898189 139.41250371 237.3692627 137.72567749 C237.83458476 135.34456018 238.28977498 132.96172438 238.7421875 130.578125 C238.88459869 129.85726212 239.02700989 129.13639923 239.17373657 128.39369202 C239.78513251 125.11128518 240.0748855 123.22465651 239 120 C237.45833358 121.37485532 237.45833358 121.37485532 236 123 C236 123.66 236 124.32 236 125 C235.34 125 234.68 125 234 125 C232.02383467 127.10573566 232.02383467 127.10573566 230 129.75 C229.29875 130.63171875 228.5975 131.5134375 227.875 132.421875 C226.30692317 134.57798064 225.08673516 136.57748621 224 139 C223.34 139 222.68 139 222 139 C220.42580515 140.74659282 220.42580515 140.74659282 218.8125 143 C218.17699219 143.81984375 217.54148437 144.6396875 216.88671875 145.484375 C215.73454583 147.02060556 214.62130973 148.58837827 213.58203125 150.203125 C208.15506977 157.82706016 199.63340833 158.97836915 191 161 C188.95804402 161.49881716 186.91633973 161.9986669 184.875 162.5 C183.92109375 162.73074219 182.9671875 162.96148437 181.984375 163.19921875 C178.64034651 164.09650388 175.39909134 165.18658431 172.125 166.3125 C164.80937067 168.81144046 157.40891457 170.86766221 149.93994141 172.85668945 C144.64266316 174.26817025 139.37967643 175.75586917 134.13525391 177.35327148 C132.32530891 177.90147001 130.5071694 178.42249923 128.6875 178.9375 C125.63168522 179.817989 122.59854973 180.74223914 119.5625 181.6875 C113.03698153 183.70117507 106.49059867 185.6405879 99.9375 187.5625 C98.94500244 187.85535889 97.95250488 188.14821777 96.92993164 188.44995117 C89.99397165 190.4767706 83.02186202 192.29525701 76 194 C76.99 191.03 76.99 191.03 78 188 C78.66 188 79.32 188 80 188 C80 187.34 80 186.68 80 186 C80.66 186 81.32 186 82 186 C82 185.34 82 184.68 82 184 C82.66 184 83.32 184 84 184 C85.73693158 182.24478052 85.73693158 182.24478052 87.5 180.0625 C90.79758308 176.10120846 90.79758308 176.10120846 93 175 C93 174.34 93 173.68 93 173 C93.66 173 94.32 173 95 173 C95 172.34 95 171.68 95 171 C95.66 171 96.32 171 97 171 C98.63675508 169.38200498 98.63675508 169.38200498 100.3125 167.3125 C103.06184384 164.03182229 105.96435637 161.01810124 109 158 C109.94430967 157.05180951 110.88789361 156.1028958 111.83081055 155.15332031 C114.53437274 152.43208237 117.24088038 149.71379624 119.94848633 146.99658203 C121.11408369 145.82591188 122.27878845 144.65435235 123.44262695 143.48193359 C125.12999024 141.78248895 126.82052084 140.08625256 128.51171875 138.390625 C129.03255539 137.86462708 129.55339203 137.33862915 130.0900116 136.79669189 C133.77225825 133.11387087 133.77225825 133.11387087 136 132 C136 131.34 136 130.68 136 130 C136.66 130 137.32 130 138 130 C139.66877721 128.31194368 139.66877721 128.31194368 141.375 126.1875 C143.23566282 123.93749143 144.86872703 122.09649715 147.2265625 120.36328125 C147.81179687 119.91339844 148.39703125 119.46351563 149 119 C149 118.34 149 117.68 149 117 C149.66 117 150.32 117 151 117 C151 116.34 151 115.68 151 115 C151.66 115 152.32 115 153 115 C154.68732277 113.01739574 156.35366057 111.0167658 158 109 C158.66 108.67 159.32 108.34 160 108 C160 107.34 160 106.68 160 106 C160.66 106 161.32 106 162 106 C162 105.34 162 104.68 162 104 C162.66 104 163.32 104 164 104 C164 103.34 164 102.68 164 102 C164.66 102 165.32 102 166 102 C166 101.34 166 100.68 166 100 C166.66 100 167.32 100 168 100 C168 99.34 168 98.68 168 98 C168.83144531 97.66162109 168.83144531 97.66162109 169.6796875 97.31640625 C172.68506155 95.61133714 174.72987003 93.42200049 177.125 90.9375 C181.80555556 86.09722222 181.80555556 86.09722222 184 85 C184 84.34 184 83.68 184 83 C184.66 83 185.32 83 186 83 C186 82.34 186 81.68 186 81 C186.66 81 187.32 81 188 81 C188 80.34 188 79.68 188 79 C188.66 79 189.32 79 190 79 C190 78.34 190 77.68 190 77 C190.66 77 191.32 77 192 77 C192 76.34 192 75.68 192 75 C192.99 74.67 193.98 74.34 195 74 C196.73067222 72.37373762 198.36203221 70.71655326 200 69 C201.37893799 67.60422474 202.76070983 66.2112463 204.14453125 64.8203125 C204.90443359 64.05589844 205.66433594 63.29148438 206.44726562 62.50390625 C207.22779297 61.71886719 208.00832031 60.93382812 208.8125 60.125 C209.96588867 58.95904297 209.96588867 58.95904297 211.14257812 57.76953125 C215.3820748 53.5121464 219.70162149 49.43201227 224.2565918 45.51416016 C226.42306424 43.63256625 228.47529229 41.65774226 230.5 39.625 C231.50546875 38.62339844 231.50546875 38.62339844 232.53125 37.6015625 C234.1126479 36.23934402 234.1126479 36.23934402 234 35 C233.18321777 34.94465088 232.36643555 34.88930176 231.52490234 34.83227539 C227.80805547 34.57869809 224.09153242 34.32064338 220.375 34.0625 C219.08980469 33.97548828 217.80460938 33.88847656 216.48046875 33.79882812 C215.23652344 33.71181641 213.99257813 33.62480469 212.7109375 33.53515625 C210.99849854 33.41732788 210.99849854 33.41732788 209.25146484 33.29711914 C206.12734242 33.01163656 203.09081253 32.52755046 200 32 C198.63749682 31.87974267 197.27253265 31.78315851 195.90625 31.71875 C195.18566406 31.68136719 194.46507812 31.64398438 193.72265625 31.60546875 C192.98917969 31.57066406 192.25570312 31.53585938 191.5 31.5 C186.57844436 31.26646397 181.86420756 30.82488581 177 30 C174.68909314 29.84837306 172.37613014 29.72696481 170.0625 29.625 C161.99352248 29.21176152 153.97499358 28.4370757 145.9375 27.625 C131.36854944 26.15772846 116.78324843 25.03538822 102.17749023 24.00244141 C101.34576294 23.94268127 100.51403564 23.88292114 99.65710449 23.8213501 C98.10048172 23.7097124 96.54368589 23.60045032 94.98669434 23.49407959 C92.01943387 23.28081786 89.10354617 23.01763134 86.16967773 22.51806641 C81.48267595 21.75200172 76.7717032 21.43267223 72.0390625 21.0625 C70.97569672 20.97750244 69.91233093 20.89250488 68.81674194 20.80493164 C66.56591379 20.62556211 64.31498516 20.44744953 62.06396484 20.27050781 C58.67130447 20.00364229 55.27899514 19.73263577 51.88671875 19.4609375 C40.26323431 18.53562125 28.64155926 17.66485704 17 17 Z " fill="#161616" transform="translate(47,23)"/>
<path d="M0 0 C6.6 0.33 13.2 0.66 20 1 C20 1.66 20 2.32 20 3 C21.32 3.33 22.64 3.66 24 4 C23.67 4.66 23.34 5.32 23 6 C20.37461716 5.85946128 17.74982573 5.71281053 15.125 5.5625 C14.37863281 5.52318359 13.63226563 5.48386719 12.86328125 5.44335938 C7.2265625 5.11328125 7.2265625 5.11328125 5 4 C5.74834277 7.16706051 6.49901476 10.33356514 7.25 13.5 C7.45496094 14.36753906 7.65992188 15.23507813 7.87109375 16.12890625 C11.88693534 33.04411781 16.36769727 49.80154549 21.01733398 66.55200195 C21.8213375 69.4516048 22.62000144 72.35263737 23.41796875 75.25390625 C23.6627446 76.13003067 23.90752045 77.00615509 24.15971375 77.90882874 C25.44683957 82.60249034 26.3471935 87.16817108 27 92 C27.68353358 93.85530542 28.3709865 95.70958486 29.1015625 97.546875 C34 110.92173913 34 110.92173913 34 117 C37.24863414 114.37104751 38.08884888 111.40161278 39.375 107.5 C40.85196335 103.15048227 42.41225561 98.90791903 44.375 94.75 C48.01596488 87.01440369 50.95264166 78.98284936 54 71 C55.17949219 70.90203125 56.35898438 70.8040625 57.57421875 70.703125 C69.79536485 69.63591591 81.91197517 68.12033566 94.04760742 66.32128906 C100.10059416 65.44432091 105.88290434 64.7720337 112 65 C111.63897222 70.44727214 108.38918096 73.8375112 105.125 77.9375 C104.54000732 78.68749268 103.95501465 79.43748535 103.35229492 80.21020508 C101.57771479 82.4811578 99.79112632 84.7420831 98 87 C96.55259849 88.82761582 95.10541542 90.6553993 93.65942383 92.48413086 C92.76621043 93.61372119 91.87153064 94.74215363 90.9753418 95.86938477 C87.17477426 100.68530171 83.62339333 105.66421895 80.17114258 110.73510742 C79.16166918 112.19090522 78.08659473 113.60082322 77 115 C76.34 115 75.68 115 75 115 C74.62101562 116.07894531 74.62101562 116.07894531 74.234375 117.1796875 C72.89591242 120.23782036 71.29512452 122.48786575 69.25 125.125 C68.45464844 126.16527344 67.65929687 127.20554687 66.83984375 128.27734375 C66.39366699 128.85983887 65.94749023 129.44233398 65.48779297 130.04248047 C62.55868466 133.89636797 59.68767045 137.7933107 56.8125 141.6875 C56.23081055 142.4707666 55.64912109 143.2540332 55.04980469 144.06103516 C51.60619388 148.72332006 48.35330806 153.45033311 45.26831055 158.35864258 C44.84976807 158.90029053 44.43122559 159.44193848 44 160 C43.34 160 42.68 160 42 160 C41.74863281 160.71800781 41.49726562 161.43601563 41.23828125 162.17578125 C39.88602338 165.25995299 38.25439392 167.53006496 36.1875 170.1875 C35.37210246 171.25007967 34.55840572 172.31396589 33.74609375 173.37890625 C33.08456299 174.24539795 33.08456299 174.24539795 32.40966797 175.12939453 C29.8026971 178.58880063 27.27981429 182.10899333 24.75 185.625 C24.19916748 186.38965576 23.64833496 187.15431152 23.08081055 187.94213867 C21.95002944 189.51229594 20.81957923 191.08269155 19.68945312 192.65332031 C16.96415266 196.43880992 14.23185602 200.21924006 11.5 204 C8.22468183 208.53380265 4.95030767 213.06827548 1.6796875 217.60546875 C0.5781858 219.13285635 -0.52337617 220.66020048 -1.625 222.1875 C-2.42296997 223.29436157 -2.42296997 223.29436157 -3.23706055 224.42358398 C-5.89492304 228.10504697 -8.56569001 231.77606179 -11.26171875 235.4296875 C-12.03298096 236.47539917 -12.03298096 236.47539917 -12.81982422 237.54223633 C-13.79450332 238.86141683 -14.77129965 240.17903637 -15.75048828 241.49487305 C-17.99627528 244.00600824 -17.99627528 244.00600824 -19 247 C8.3845208 244.59136874 8.3845208 244.59136874 35.63891602 241.07714844 C49.31979591 238.98315076 63.13602752 237.79523759 76.90234375 236.40234375 C77.78325684 236.31218994 78.66416992 236.22203613 79.57177734 236.12915039 C81.18243865 235.96480042 82.79342725 235.80361384 84.40478516 235.64624023 C87.43349653 235.33837099 90.10019638 234.96660121 93 234 C95.52944766 233.68670633 98.04975488 233.41201741 100.5859375 233.16796875 C102.15895437 233.00970851 103.73195161 232.85125297 105.30493164 232.69262695 C106.13219757 232.61033844 106.9594635 232.52804993 107.8117981 232.44326782 C122.07945504 231.0195768 136.28681298 229.4088695 150.47216797 227.30737305 C157.05162745 226.34521234 163.58252011 225.66528232 170.22045898 225.25268555 C172.87997888 225.08304772 172.87997888 225.08304772 174.93530273 224.51464844 C177.92524144 223.76937342 180.9080595 223.58146559 183.9765625 223.31640625 C184.6556517 223.25656555 185.33474091 223.19672485 186.03440857 223.1350708 C187.48336703 223.0075115 188.93244263 222.881277 190.38162231 222.7562561 C194.12094623 222.43329808 197.85934079 222.10002917 201.59765625 221.765625 C202.69432869 221.66765373 202.69432869 221.66765373 203.81315613 221.56770325 C211.89091819 220.839742 219.94522908 219.94725449 228 219 C231.87968818 200.07917221 235.57402491 181.13348768 239 162.125 C239.66782338 158.42184876 240.33568788 154.71870499 241.00390625 151.015625 C241.1683876 150.10410675 241.33286896 149.1925885 241.50233459 148.25344849 C243.1257079 139.27420061 244.78687708 130.30222026 246.47485352 121.3348999 C246.78131631 119.70543158 247.08666953 118.07575416 247.39086914 116.44586182 C247.80832322 114.21071895 248.22969554 111.97635319 248.65234375 109.7421875 C249.00800415 107.85282471 249.00800415 107.85282471 249.37084961 105.92529297 C250 103 250 103 251 101 C251.66 101 252.32 101 253 101 C253.41691455 108.90593514 252.81245735 116.51410858 251.796875 124.34375 C251.60036598 125.88464294 251.60036598 125.88464294 251.39988708 127.45666504 C249.64895563 140.98142645 247.68571726 154.47715171 245.72094727 167.97216797 C245.17200811 171.74273 244.62753233 175.51392122 244.08419228 179.28529358 C241.59325269 196.55968204 238.97972561 213.80163056 236 231 C231.77635672 232.27914743 227.75584515 233.28706617 223.3671875 233.74609375 C222.32498047 233.85953125 221.28277344 233.97296875 220.20898438 234.08984375 C219.10876953 234.20457031 218.00855469 234.31929687 216.875 234.4375 C208.72709426 235.32917478 200.6068485 236.28952536 192.5 237.5 C183.42938481 238.84595087 174.33792616 239.91906743 165.22607422 240.9453125 C159.68202317 241.57092182 154.15026086 242.22620768 148.625 243 C141.51726132 243.98402332 134.38697477 244.69945212 127.25 245.4375 C116.78716951 246.52672982 106.43946074 247.93044261 96.06689453 249.66357422 C88.35071129 250.9195275 80.61527343 251.93185649 72.8125 252.4375 C67.56255856 252.79872487 62.44023601 253.51392454 57.25 254.33984375 C44.60456417 256.29164493 31.90060987 257.69623922 19.1875 259.125 C15.68464389 259.52153152 12.18190685 259.91908445 8.67927551 260.31759644 C6.52243572 260.56269884 4.36545081 260.8065289 2.20829773 261.04885864 C-4.11466735 261.76386093 -10.39696067 262.6029262 -16.6875 263.5625 C-22.06678202 264.21773671 -27.60101025 264.49006215 -33 264 C-35 262 -35 262 -35.44140625 259.328125 C-34.8360534 254.76387167 -32.75114118 252.2908901 -29.9375 248.75 C-28.92600632 247.43181531 -27.91559162 246.112802 -26.90625 244.79296875 C-26.40996094 244.15149902 -25.91367187 243.5100293 -25.40234375 242.84912109 C-22.90287318 239.55333592 -20.62961988 236.10321816 -18.33984375 232.66015625 C-17.89769531 232.11230469 -17.45554687 231.56445312 -17 231 C-16.34 231 -15.68 231 -15 231 C-14.7421875 230.28457031 -14.484375 229.56914062 -14.21875 228.83203125 C-12.92615235 225.82839889 -11.3722291 223.36494628 -9.5 220.6875 C-8.8915625 219.80449219 -8.283125 218.92148438 -7.65625 218.01171875 C-7.1096875 217.34785156 -6.563125 216.68398437 -6 216 C-5.34 216 -4.68 216 -4 216 C-3.73952881 215.27167969 -3.47905762 214.54335937 -3.21069336 213.79296875 C-1.96668562 210.9231465 -0.53013634 208.788473 1.37109375 206.3125 C2.35625977 205.01699219 2.35625977 205.01699219 3.36132812 203.6953125 C4.04646484 202.80585938 4.73160156 201.91640625 5.4375 201 C6.7925659 199.23085058 8.14550277 197.46006799 9.49609375 195.6875 C10.39606079 194.51767578 10.39606079 194.51767578 11.31420898 193.32421875 C13.07748918 190.98175125 13.07748918 190.98175125 14.59399414 188.20703125 C15.05797607 187.47871094 15.52195801 186.75039062 16 186 C16.66 186 17.32 186 18 186 C18.28875 185.236875 18.5775 184.47375 18.875 183.6875 C20 181 20 181 22 178 C22.66 178 23.32 178 24 178 C24.66 176.35 25.32 174.7 26 173 C26.66 173 27.32 173 28 173 C28.33 171.68 28.66 170.36 29 169 C29.66 169 30.32 169 31 169 C31.28875 168.236875 31.5775 167.47375 31.875 166.6875 C33 164 33 164 35 161 C35.66 161 36.32 161 37 161 C37.2475 160.29488281 37.495 159.58976563 37.75 158.86328125 C39.16103659 155.63112557 40.9250726 153.03671098 43 150.1875 C43.70125 149.21167969 44.4025 148.23585937 45.125 147.23046875 C45.74375 146.49441406 46.3625 145.75835937 47 145 C47.66 145 48.32 145 49 145 C49.268125 144.43796875 49.53625 143.8759375 49.8125 143.296875 C51.0803979 140.84449354 52.48972342 138.56072317 54 136.25 C54.7734375 135.05117188 54.7734375 135.05117188 55.5625 133.828125 C56.036875 133.22484375 56.51125 132.6215625 57 132 C57.66 132 58.32 132 59 132 C59.20625 131.34 59.4125 130.68 59.625 130 C61.49124252 125.92819814 63.97561527 122.31203002 67 119 C67.66 119 68.32 119 69 119 C69.2578125 118.28457031 69.515625 117.56914062 69.78125 116.83203125 C71.07384765 113.82839889 72.6277709 111.36494628 74.5 108.6875 C75.1084375 107.80449219 75.716875 106.92148438 76.34375 106.01171875 C76.8903125 105.34785156 77.436875 104.68398437 78 104 C78.66 104 79.32 104 80 104 C80.20625 103.34 80.4125 102.68 80.625 102 C82.49124252 97.92819814 84.97561527 94.31203002 88 91 C88.66 91 89.32 91 90 91 C90.268125 90.4225 90.53625 89.845 90.8125 89.25 C92.01800803 86.96587952 93.43135523 85.04568469 95 83 C90.74022161 83.43259398 86.48843378 83.89525874 82.23828125 84.4140625 C78.77408862 84.83062209 75.33986533 85.10171366 71.85546875 85.2734375 C62.69103412 85.82204435 62.69103412 85.82204435 55.37890625 90.79296875 C53.50790206 93.90702217 52.20716828 97.21160235 50.93945312 100.60791016 C49.50658205 104.2563693 47.765448 107.74423114 46.04907227 111.26611328 C44.74247643 113.94958983 43.4661148 116.64525125 42.19921875 119.34765625 C37.11144932 130.12302088 37.11144932 130.12302088 33.8125 134.375 C33.28269531 135.06335938 32.75289063 135.75171875 32.20703125 136.4609375 C31.80871094 136.96882812 31.41039063 137.47671875 31 138 C29.1875 137.9375 29.1875 137.9375 27 137 C23.66207456 130.96115779 22.28808351 124.07583125 20.5625 117.4375 C18.34855694 109.01456607 16.06951166 100.61869889 13.65097046 92.25204468 C12.89072163 89.62194942 12.13248289 86.99127791 11.37426758 84.3605957 C9.13217891 76.58377539 6.8870081 68.80784531 4.64160156 61.03198242 C4.31901367 59.91476807 3.99642578 58.79755371 3.6640625 57.64648438 C3.3428241 56.53423492 3.02158569 55.42198547 2.69061279 54.27603149 C2.05161543 52.06057768 1.41394492 49.8447407 0.77764893 47.62850952 C-0.73912876 42.34745703 -2.27204402 37.07261679 -3.84863281 31.80908203 C-4.13445221 30.84301529 -4.42027161 29.87694855 -4.7147522 28.88160706 C-5.24930691 27.07625049 -5.79147638 25.27312437 -6.34262085 23.47276306 C-6.57711945 22.67487869 -6.81161804 21.87699432 -7.05322266 21.05493164 C-7.26129547 20.36436172 -7.46936829 19.67379181 -7.68374634 18.96229553 C-8.36135406 14.75786485 -6.31563239 11.40995029 -4.4375 7.75 C-3.98246094 6.85796875 -3.52742188 5.9659375 -3.05859375 5.046875 C-2.53458984 4.03367187 -2.53458984 4.03367187 -2 3 C-1.34 3 -0.68 3 0 3 C0 2.01 0 1.02 0 0 Z " fill="#0E0E0E" transform="translate(47,23)"/>
<path d="M0 0 C10.10365503 -0.20573053 20.06236976 -0.07828024 30.125 0.9375 C31.43065918 1.06777588 31.43065918 1.06777588 32.76269531 1.20068359 C38.86313612 1.86313612 38.86313612 1.86313612 40 3 C40.25875513 7.48508886 39.61064244 11.39694911 38.5625 15.75 C38.29566406 16.87921875 38.02882813 18.0084375 37.75390625 19.171875 C37 22 37 22 36 24 C35.34 24 34.68 24 34 24 C34 24.66 34 25.32 34 26 C33.34 26 32.68 26 32 26 C32 26.66 32 27.32 32 28 C30.64453125 29.33203125 30.64453125 29.33203125 28.8125 30.8125 C24.75214677 34.18521276 21.06318639 37.63304607 17.8125 41.8125 C17.214375 42.534375 16.61625 43.25625 16 44 C15.34 44 14.68 44 14 44 C14 44.66 14 45.32 14 46 C13.34 46 12.68 46 12 46 C12 46.66 12 47.32 12 48 C10.77734375 49.19921875 10.77734375 49.19921875 8.9375 50.6875 C3.66360687 55.13467475 -1.09655011 60.07240197 -5.89477539 65.02026367 C-6.52504639 65.6619751 -7.15531738 66.30368652 -7.8046875 66.96484375 C-8.37171387 67.5487085 -8.93874023 68.13257324 -9.52294922 68.73413086 C-11 70 -11 70 -13 70 C-13 70.66 -13 71.32 -13 72 C-13.66 72 -14.32 72 -15 72 C-15 72.66 -15 73.32 -15 74 C-16.46875 75.4453125 -16.46875 75.4453125 -18.5 77.125 C-22.3499234 80.37893881 -25.86064335 83.84772718 -29.3359375 87.49609375 C-31 89 -31 89 -33 89 C-33 89.66 -33 90.32 -33 91 C-33.66 91 -34.32 91 -35 91 C-35 91.66 -35 92.32 -35 93 C-35.66 93 -36.32 93 -37 93 C-37.495 94.485 -37.495 94.485 -38 96 C-38.66 96 -39.32 96 -40 96 C-40 96.66 -40 97.32 -40 98 C-40.66 98 -41.32 98 -42 98 C-42 98.66 -42 99.32 -42 100 C-42.66 100 -43.32 100 -44 100 C-44 100.66 -44 101.32 -44 102 C-44.66 102 -45.32 102 -46 102 C-46 102.66 -46 103.32 -46 104 C-46.66 104 -47.32 104 -48 104 C-48 104.66 -48 105.32 -48 106 C-48.66 106 -49.32 106 -50 106 C-50 106.66 -50 107.32 -50 108 C-51.328125 109.3046875 -51.328125 109.3046875 -53.25 110.875 C-57.76565294 114.68659953 -61.86942916 118.83247727 -65.96191406 123.08740234 C-67.27195774 124.42774345 -68.63228766 125.71855875 -70 127 C-70.66 127 -71.32 127 -72 127 C-72.33 127.99 -72.66 128.98 -73 130 C-74.70703125 131.68359375 -74.70703125 131.68359375 -76.8125 133.4375 C-79.66759505 135.85689832 -82.4052662 138.2971523 -85 141 C-78.37229514 139.80576778 -78.37229514 139.80576778 -71.9375 137.875 C-67.92910732 136.68101069 -64.15094158 136.83396234 -60 137 C-60 137.66 -60 138.32 -60 139 C-70.28113188 142.54002343 -80.59334963 145.81423554 -91.06860352 148.7331543 C-98.12816616 150.71181769 -105.10555119 152.90415623 -112.04858398 155.25976562 C-117.67418274 157.10860575 -117.67418274 157.10860575 -121 156 C-119.88121617 154.82737096 -118.75476949 153.66204862 -117.625 152.5 C-116.99851563 151.8503125 -116.37203125 151.200625 -115.7265625 150.53125 C-114 149 -114 149 -112 149 C-111.67 148.01 -111.34 147.02 -111 146 C-109.64453125 144.66796875 -109.64453125 144.66796875 -107.8125 143.1875 C-103.80165135 139.78435569 -100.07876957 136.16634691 -96.375 132.4375 C-95.77969482 131.8388916 -95.18438965 131.2402832 -94.57104492 130.62353516 C-92.71206224 128.75096161 -90.85560426 126.8759211 -89 125 C-74.9853396 110.83189441 -74.9853396 110.83189441 -68.81542969 105.59716797 C-64.46464553 101.76946087 -60.5071061 97.50096681 -56.47265625 93.34570312 C-55.79332031 92.65541016 -55.11398438 91.96511719 -54.4140625 91.25390625 C-53.50068115 90.31526733 -53.50068115 90.31526733 -52.56884766 89.35766602 C-51 88 -51 88 -49 88 C-48.01 86.02 -48.01 86.02 -47 84 C-46.34 84 -45.68 84 -45 84 C-45 83.34 -45 82.68 -45 82 C-44.34 82 -43.68 82 -43 82 C-43 81.34 -43 80.68 -43 80 C-42.34 80 -41.68 80 -41 80 C-41 79.34 -41 78.68 -41 78 C-40.34 78 -39.68 78 -39 78 C-39 77.34 -39 76.68 -39 76 C-38.34 76 -37.68 76 -37 76 C-37 75.34 -37 74.68 -37 74 C-35.49609375 72.51953125 -35.49609375 72.51953125 -33.4375 70.8125 C-30.6746132 68.46720242 -28.03320243 66.09170595 -25.5 63.5 C-22.49115823 60.43657607 -19.31646525 57.63802575 -16.05859375 54.84375 C-13.11309409 52.20565543 -10.39038568 49.3660025 -7.6640625 46.50390625 C-6 45 -6 45 -4 45 C-3.34 43.68 -2.68 42.36 -2 41 C-1.34 41 -0.68 41 0 41 C0 40.34 0 39.68 0 39 C1.36328125 37.66015625 1.36328125 37.66015625 3.3125 36.0625 C7.57534743 32.4631011 11.4615561 28.5813202 15.31762695 24.55688477 C16.50909296 23.33509286 17.75093864 22.16284669 19 21 C19.66 21 20.32 21 21 21 C21 20.34 21 19.68 21 19 C22.609375 17.4140625 22.609375 17.4140625 24.75 15.625 C27.06903702 13.66242273 29.25219284 11.7411705 31.375 9.5625 C33 8 33 8 35 8 C35 7.34 35 6.68 35 6 C34.25951416 5.9498877 33.51902832 5.89977539 32.75610352 5.84814453 C29.35770903 5.61413845 25.96014452 5.36964501 22.5625 5.125 C21.39783203 5.04636719 20.23316406 4.96773437 19.03320312 4.88671875 C12.49939717 4.40818648 6.35110882 3.61664588 0 2 C0 1.34 0 0.68 0 0 Z " fill="#0E0E0E" transform="translate(265,46)"/>
<path d="M0 0 C3.06277267 0.14126626 6.12513542 0.28784396 9.1875 0.4375 C10.05181641 0.47681641 10.91613281 0.51613281 11.80664062 0.55664062 C15.98358905 0.76468786 19.90286023 1.13708665 24 2 C26.49791151 2.19548873 28.99837009 2.35990872 31.5 2.5 C38.45017344 2.88920971 38.45017344 2.88920971 41.42443848 3.48852539 C43.89881312 3.97990554 46.28990909 4.26033329 48.80273438 4.46484375 C49.7271936 4.54162354 50.65165283 4.61840332 51.60412598 4.69750977 C52.5907019 4.77670654 53.57727783 4.85590332 54.59375 4.9375 C55.61803101 5.02249756 56.64231201 5.10749512 57.69763184 5.19506836 C60.96486834 5.46612466 64.23238796 5.7335114 67.5 6 C71.80236255 6.3508772 76.10438998 6.70552023 80.40625 7.0625 C81.39282593 7.14169678 82.37940186 7.22089355 83.39587402 7.30249023 C84.32033325 7.37927002 85.24479248 7.4560498 86.19726562 7.53515625 C87.00603149 7.600979 87.81479736 7.66680176 88.64807129 7.73461914 C91.13836682 8.01561268 93.54482472 8.50250493 96 9 C98.43505237 9.21698487 100.87301384 9.40290745 103.3125 9.5625 C104.56675781 9.64628906 105.82101563 9.73007812 107.11328125 9.81640625 C108.06589844 9.87699219 109.01851563 9.93757813 110 10 C110 10.33 110 10.66 110 11 C107.36 11 104.72 11 102 11 C102.495 11.99 102.495 11.99 103 13 C106.53450072 14.17816691 109.93877594 14.40571703 113.625 14.68359375 C115.1510646 14.80766093 116.67710559 14.93201878 118.203125 15.05664062 C120.60586657 15.24875172 123.00874349 15.43816992 125.41210938 15.62231445 C127.73375754 15.80176207 130.05433212 15.99193931 132.375 16.18359375 C133.09381348 16.23575546 133.81262695 16.28791718 134.55322266 16.34165955 C138.13664441 16.64446535 139.9413821 16.9609214 143 19 C133.1772399 19.48220822 123.74674209 18.4823686 114.01611328 17.28027344 C102.93455747 15.9343102 91.83316573 14.98886312 80.70825195 14.09057617 C72.1892127 13.39711719 63.7006224 12.55401792 55.20849609 11.58666992 C48.88847236 10.86870837 42.5632874 10.19973184 36.23828125 9.52734375 C33.77669211 9.26497954 31.31510358 9.00260968 28.85351562 8.74023438 C25.05743142 8.33595425 21.26130689 7.93206526 17.46508789 7.52905273 C13.74353213 7.13376965 10.02214542 6.7369259 6.30078125 6.33984375 C5.16844559 6.22003647 4.03610992 6.10022919 2.86946106 5.97679138 C-2.43733535 5.40945183 -7.72363611 4.80416559 -13 4 C-12.84442627 4.5261792 -12.68885254 5.0523584 -12.52856445 5.59448242 C-9.66557821 15.32443309 -6.90777919 25.05358294 -4.625 34.9375 C-2.62627986 43.56762632 -0.41673409 52.1306053 1.875 60.6875 C2.21394287 61.95416504 2.55288574 63.22083008 2.90209961 64.52587891 C4.59158743 70.81757153 6.30093571 77.10330333 8.03515625 83.3828125 C8.35564941 84.55110596 8.67614258 85.71939941 9.00634766 86.9230957 C9.6080771 89.1133972 10.21543634 91.30216332 10.82958984 93.48901367 C12.4377303 99.35132983 13.50377046 104.93846193 14 111 C11.89711911 107.84567867 11.06147554 105.24894384 10 101.625 C8.67885675 97.09044404 8.67885675 97.09044404 7.01782227 92.67626953 C5.91492393 89.77630035 5.30787331 86.99822403 4.71484375 83.953125 C3.48099536 78.00772624 2.03165354 72.15662193 0.44140625 66.296875 C0.20932465 65.44154175 -0.02275696 64.5862085 -0.26187134 63.70495605 C-1.22463185 60.17074804 -2.19365543 56.63827335 -3.16333008 53.10595703 C-5.91353522 43.0674756 -8.54782163 33.03946478 -10.70713806 22.8550415 C-11.70842683 18.14997519 -12.92633365 13.59278099 -14.484375 9.04296875 C-15 7 -15 7 -15 2 C-9.06 2.66 -3.12 3.32 3 4 C3 3.34 3 2.68 3 2 C2.01 1.34 1.02 0.68 0 0 Z " fill="#323232" transform="translate(67,25)"/>
<path d="M0 0 C0.33 0 0.66 0 1 0 C0.43811198 7.63731635 -0.60997739 15.06567981 -2.0390625 22.5859375 C-2.34157928 24.21103241 -2.34157928 24.21103241 -2.65020752 25.86895752 C-3.30357118 29.37190878 -3.96413431 32.87345705 -4.625 36.375 C-5.07998778 38.80510131 -5.53457446 41.23527775 -5.98876953 43.66552734 C-7.11343712 49.6761223 -8.2441589 55.68555809 -9.37719727 61.69458008 C-10.11884219 65.63073475 -10.85726482 69.56748857 -11.59539795 73.50430298 C-13.37757752 83.00659424 -15.17766382 92.50532814 -17 102 C-17.21914063 103.14243164 -17.43828125 104.28486328 -17.6640625 105.46191406 C-18.22888632 108.39238449 -18.79983474 111.32154417 -19.375 114.25 C-19.53081543 115.05518066 -19.68663086 115.86036133 -19.84716797 116.68994141 C-20.8823245 121.8823245 -20.8823245 121.8823245 -22 123 C-24.05249259 123.27749715 -26.11339374 123.49309896 -28.17578125 123.68359375 C-30.11747192 123.86656006 -30.11747192 123.86656006 -32.09838867 124.05322266 C-32.78693939 124.11600403 -33.47549011 124.1787854 -34.18490601 124.24346924 C-36.31157421 124.43741557 -38.43768737 124.63662436 -40.5637207 124.83740234 C-43.39028806 125.10395534 -46.21701952 125.36862321 -49.04394531 125.63134766 C-54.25965512 126.11738332 -59.47410492 126.61478253 -64.6875 127.125 C-65.88596558 127.23799438 -65.88596558 127.23799438 -67.10864258 127.35327148 C-71.01583937 127.71372807 -71.01583937 127.71372807 -74.85498047 128.48632812 C-77.56136477 129.13443108 -80.22560118 129.38361874 -82.99609375 129.6484375 C-84.18323975 129.76509766 -85.37038574 129.88175781 -86.59350586 130.00195312 C-87.86202393 130.12505859 -89.13054199 130.24816406 -90.4375 130.375 C-99.13316754 131.24237695 -107.79775296 132.17604806 -116.4375 133.5 C-126.63103883 135.06079233 -136.87371879 136.04629132 -147.13842773 136.99804688 C-148.37407471 137.11470703 -149.60972168 137.23136719 -150.8828125 137.3515625 C-151.99027832 137.45291504 -153.09774414 137.55426758 -154.23876953 137.65869141 C-157.08315401 137.91801761 -157.08315401 137.91801761 -160 139 C-161.92679125 139.25082914 -163.85896909 139.46112735 -165.79296875 139.6484375 C-166.96923828 139.76533936 -168.14550781 139.88224121 -169.35742188 140.00268555 C-171.25331055 140.1869812 -171.25331055 140.1869812 -173.1875 140.375 C-182.81435272 141.3306243 -192.40965519 142.40883874 -202 143.6875 C-210.06211564 144.75003156 -217.8569941 145.42941633 -226 145 C-223.29209511 142.29209511 -221.42746382 142.47764294 -217.640625 142.03515625 C-216.99246826 141.95735931 -216.34431152 141.87956238 -215.67651367 141.79940796 C-213.53526531 141.54506025 -211.39277502 141.30361987 -209.25 141.0625 C-207.75612589 140.88795541 -206.26231134 140.71290046 -204.76855469 140.53735352 C-193.69433945 139.24924556 -182.60478858 138.142182 -171.50683594 137.07885742 C-163.27430384 136.2748906 -155.11111393 135.22486142 -146.93383789 133.98632812 C-141.08538723 133.11288476 -135.27633166 132.58996358 -129.37109375 132.2421875 C-124.98004389 131.9267239 -120.63030925 131.37436418 -116.26733398 130.80273438 C-110.16755288 130.00547386 -104.05716407 129.33277274 -97.93847656 128.69750977 C-93.92475479 128.28060632 -93.92475479 128.28060632 -89.97387695 127.48852539 C-85.83225504 126.46349318 -81.46108811 126.53076698 -77.21484375 126.28125 C-73.98521204 126.12415121 -73.98521204 126.12415121 -71 125 C-68.63158935 124.72378786 -66.25804922 124.49080359 -63.8828125 124.28125 C-63.18864227 124.21844849 -62.49447205 124.15564697 -61.77926636 124.09094238 C-59.56146712 123.89055553 -57.34329292 123.6948403 -55.125 123.5 C-52.91387971 123.30485864 -50.70288282 123.10862045 -48.49215698 122.90905762 C-46.48086105 122.72759606 -44.46919805 122.55021672 -42.45751953 122.37304688 C-39.57553812 122.06209732 -36.83288351 121.58863898 -34 121 C-30.33127894 120.87622399 -26.6699982 120.95578315 -23 121 C-22.88825439 120.23848633 -22.77650879 119.47697266 -22.66137695 118.69238281 C-21.35934591 110.00693895 -19.82219801 101.37824492 -18.1875 92.75 C-17.92128242 91.33634872 -17.65508814 89.92269305 -17.38891602 88.5090332 C-15.60354465 79.0545381 -13.740793 69.61711369 -11.8293457 60.18725586 C-10.0294204 51.26440685 -8.37964534 42.31624314 -6.74511719 33.36181641 C-5.46240574 26.37278912 -4.08103313 19.42789471 -2.48046875 12.50390625 C-1.87436693 9.77020935 -1.87436693 9.77020935 -2 6 C-6.36656556 10.15240158 -10.4212781 14.41722262 -14.1875 19.125 C-18.35136701 24.32260483 -22.81813765 29.15177393 -27.38867188 33.98730469 C-30.36379079 37.15876022 -33.13670873 40.34265424 -35.6875 43.875 C-36.8321875 45.421875 -36.8321875 45.421875 -38 47 C-38.66 47 -39.32 47 -40 47 C-40.28875 47.61875 -40.5775 48.2375 -40.875 48.875 C-42 51 -42 51 -44 53 C-46.125 52.625 -46.125 52.625 -48 52 C-47.38125 51.9175 -46.7625 51.835 -46.125 51.75 C-45.42375 51.5025 -44.7225 51.255 -44 51 C-43.61134766 50.17628906 -43.61134766 50.17628906 -43.21484375 49.3359375 C-41.49832294 46.03536051 -38.97872131 43.54962729 -36.4375 40.875 C-32.81366093 37.23596593 -32.81366093 37.23596593 -30 33 C-29.34 33 -28.68 33 -28 33 C-27.77441406 32.45601562 -27.54882812 31.91203125 -27.31640625 31.3515625 C-25.58776213 28.26359881 -23.35449856 25.95545026 -20.9375 23.375 C-17.58466353 19.95790247 -17.58466353 19.95790247 -15 16 C-14.34 16 -13.68 16 -13 16 C-12.73960937 15.41089844 -12.47921875 14.82179687 -12.2109375 14.21484375 C-10.92577526 11.86424056 -9.56513183 10.39672944 -7.625 8.5625 C-4.83366943 5.86421379 -2.40493106 3.0524125 0 0 Z " fill="#727272" transform="translate(297,120)"/>
<path d="M0 0 C0.99 0.495 0.99 0.495 2 1 C2.31620422 7.79839071 1.12676382 14.30983984 0 21 C-0.33 21 -0.66 21 -1 21 C-1 18.36 -1 15.72 -1 13 C-1.66 13 -2.32 13 -3 13 C-3.33 12.01 -3.66 11.02 -4 10 C-5.79419526 11.93521061 -7.58541329 13.8730354 -9.375 15.8125 C-9.88289062 16.35970703 -10.39078125 16.90691406 -10.9140625 17.47070312 C-13.15216303 19.90022015 -15.16379112 22.24568668 -17 25 C-17.66 25 -18.32 25 -19 25 C-19.22558594 25.54398438 -19.45117188 26.08796875 -19.68359375 26.6484375 C-21.41223787 29.73640119 -23.64550144 32.04454974 -26.0625 34.625 C-29.41533647 38.04209753 -29.41533647 38.04209753 -32 42 C-32.66 42 -33.32 42 -34 42 C-34.32677734 42.80244141 -34.32677734 42.80244141 -34.66015625 43.62109375 C-36.47560896 46.84444855 -38.91846857 49.38582384 -41.4375 52.0625 C-41.92798828 52.59166016 -42.41847656 53.12082031 -42.92382812 53.66601562 C-44.27422353 55.1184652 -45.6366665 56.55968778 -47 58 C-47.56847656 58.61746094 -48.13695312 59.23492187 -48.72265625 59.87109375 C-50 61 -50 61 -52 61 C-52 61.66 -52 62.32 -52 63 C-61.32395721 66.28226531 -70.70016834 69.10287468 -80.26611328 71.59228516 C-86.21102818 73.16274563 -92.06636716 74.9494452 -97.921875 76.8203125 C-107.21154449 79.7846232 -116.54955314 82.5490656 -125.93115234 85.20727539 C-128.55675524 85.95363333 -131.17865664 86.71222733 -133.80078125 87.47070312 C-135.48155825 87.94866485 -137.16253993 88.42590756 -138.84375 88.90234375 C-139.6217395 89.12929428 -140.399729 89.35624481 -141.20129395 89.59007263 C-146.65717652 91.11427449 -146.65717652 91.11427449 -150 90 C-136.17203396 85.48370734 -122.33907111 81.01680697 -108.375 76.9375 C-107.35728516 76.63900146 -106.33957031 76.34050293 -105.29101562 76.03295898 C-98.25846995 74 -98.25846995 74 -96 74 C-96 73.34 -96 72.68 -96 72 C-97.65 72 -99.3 72 -101 72 C-97.77408094 69.84938729 -95.07805482 68.95460007 -91.375 67.8125 C-90.69711426 67.60254395 -90.01922852 67.39258789 -89.32080078 67.17626953 C-84.76486581 65.78481647 -80.18618469 64.48815428 -75.59375 63.22265625 C-74.48467285 62.91674561 -73.3755957 62.61083496 -72.23291016 62.2956543 C-70.02596694 61.69056611 -67.81733928 61.09158233 -65.60693359 60.49926758 C-56.70103595 58.06651532 -50.93307763 55.50536056 -44.8125 48.5625 C-44.29236328 47.98951172 -43.77222656 47.41652344 -43.23632812 46.82617188 C-41.11933915 44.47666559 -39.11335779 42.15717249 -37.26171875 39.58984375 C-36.84535156 39.06519531 -36.42898438 38.54054687 -36 38 C-35.34 38 -34.68 38 -34 38 C-34 37.34 -34 36.68 -34 36 C-33.34 36 -32.68 36 -32 36 C-31.773125 35.46375 -31.54625 34.9275 -31.3125 34.375 C-29.54429911 31.17539839 -27.46329797 28.70962777 -25 26 C-24.34 26 -23.68 26 -23 26 C-23 25.34 -23 24.68 -23 24 C-22.34 24 -21.68 24 -21 24 C-21 23.34 -21 22.68 -21 22 C-20.34 22 -19.68 22 -19 22 C-18.731875 21.4225 -18.46375 20.845 -18.1875 20.25 C-16.97070811 17.94449957 -15.69666121 15.97943808 -14 14 C-13.34 14 -12.68 14 -12 14 C-11.73316406 13.41476563 -11.46632813 12.82953125 -11.19140625 12.2265625 C-9.98062783 9.96379627 -8.6463301 8.28116429 -6.9375 6.375 C-5.33621517 4.5818742 -4.07671842 3.15343684 -3 1 C-2.01 0.67 -1.02 0.34 0 0 Z " fill="#333333" transform="translate(301,111)"/>
<path d="M0 0 C12.78304598 -0.48105213 25.31218116 1.00011722 38 2.375 C41.1619348 2.71157266 44.32408506 3.04603656 47.48632812 3.37969971 C49.56977914 3.59957542 51.65311409 3.82055379 53.73632812 4.04266357 C61.84896114 4.90079205 69.96864554 5.65458256 78.09814453 6.33456421 C78.94876465 6.40801056 79.79938477 6.48145691 80.67578125 6.55712891 C81.41739502 6.61897369 82.15900879 6.68081848 82.9230957 6.74453735 C85.0122902 7.00151171 86.97115554 7.44600519 89 8 C89 8.66 89 9.32 89 10 C87.390625 11.5859375 87.390625 11.5859375 85.25 13.375 C82.93096298 15.33757727 80.74780716 17.2588295 78.625 19.4375 C77 21 77 21 75 21 C75 21.66 75 22.32 75 23 C73.63671875 24.33984375 73.63671875 24.33984375 71.6875 25.9375 C67.42465257 29.5368989 63.5384439 33.4186798 59.68237305 37.44311523 C58.49090704 38.66490714 57.24906136 39.83715331 56 41 C55.34 41 54.68 41 54 41 C54 41.66 54 42.32 54 43 C52.671875 44.3046875 52.671875 44.3046875 50.75 45.875 C46.96968859 49.07888095 43.47329412 52.47311072 40 56 C36.07242763 59.97783941 32.08378179 63.78141356 27.81640625 67.3984375 C25.21149678 69.6952394 22.82958649 72.19194918 20.4453125 74.71484375 C19 76 19 76 17 76 C17 76.66 17 77.32 17 78 C16.34 78 15.68 78 15 78 C15 78.66 15 79.32 15 80 C14.34 80 13.68 80 13 80 C13 80.66 13 81.32 13 82 C12.34 82 11.68 82 11 82 C11 82.66 11 83.32 11 84 C10.34 84 9.68 84 9 84 C9 84.66 9 85.32 9 86 C7.671875 87.3046875 7.671875 87.3046875 5.75 88.875 C-0.17833782 93.89702718 -5.55174107 99.47001718 -11 105 C-11.99 104.67 -12.98 104.34 -14 104 C-10.87427529 100.84927872 -7.7450669 97.70206864 -4.61279297 94.55786133 C-3.55099139 93.49107703 -2.49009442 92.42339147 -1.43017578 91.35473633 C3.97633037 85.90483518 9.39293049 80.53498464 15.234375 75.54516602 C18.13456107 73.00710219 20.80805443 70.25512897 23.5 67.5 C27.56209976 63.38651083 31.66665389 59.43210299 36.0859375 55.69921875 C39.26483139 52.87713948 42.17740579 49.79047723 45.1171875 46.72265625 C47 45 47 45 49 45 C49.33 44.01 49.66 43.02 50 42 C51.70703125 40.31640625 51.70703125 40.31640625 53.8125 38.5625 C56.11265868 36.62032666 58.27115592 34.7217084 60.375 32.5625 C62 31 62 31 64 31 C64 30.34 64 29.68 64 29 C64.66 29 65.32 29 66 29 C66 28.34 66 27.68 66 27 C67.36328125 25.625 67.36328125 25.625 69.3125 24 C72.93967795 20.91982914 76.48708828 17.77130551 80 14.5625 C80.94875 13.69753906 81.8975 12.83257812 82.875 11.94140625 C83.57625 11.30074219 84.2775 10.66007812 85 10 C81.59225979 8.8640866 78.34145168 8.59765974 74.7890625 8.31640625 C73.71531372 8.22678116 73.71531372 8.22678116 72.61987305 8.13534546 C71.08535607 8.00758636 69.55070247 7.88145992 68.01593018 7.75680542 C64.00999947 7.43125261 60.00507854 7.09365792 56 6.7578125 C55.2121109 6.69208542 54.4242218 6.62635834 53.61245728 6.55863953 C45.22441662 5.85687255 36.84678654 5.05962988 28.46972656 4.23828125 C25.7279193 3.97374943 22.98519535 3.72051926 20.2421875 3.46875 C19.28231934 3.37988525 18.32245117 3.29102051 17.33349609 3.19946289 C15.5006692 3.03001405 13.6676705 2.86240891 11.83447266 2.69702148 C7.83176354 2.32390088 3.92522178 1.90891406 0 1 C0 0.67 0 0.34 0 0 Z " fill="#828282" transform="translate(211,44)"/>
<path d="M0 0 C10.06148396 -0.16831479 19.8569114 0.26411779 29.875 1.3125 C31.23718334 1.44961641 32.59940755 1.58632728 33.96166992 1.72265625 C43.0701062 2.64512647 52.15604708 3.72665626 61.23950195 4.86767578 C75.78318452 6.64882222 90.40065462 7.77935395 105 9 C105 9.33 105 9.66 105 10 C102.03 10 99.06 10 96 10 C96 10.66 96 11.32 96 12 C96.99 12.33 97.98 12.66 99 13 C94.00099616 12.59376645 89.00223147 12.18473856 84.00366211 11.77319336 C82.30548185 11.63376518 80.60724024 11.49508198 78.90893555 11.35717773 C76.45865379 11.15807886 74.00860993 10.9562439 71.55859375 10.75390625 C70.43160316 10.66321617 70.43160316 10.66321617 69.28184509 10.57069397 C65.90999133 10.2898535 62.59185229 9.94126913 59.24023438 9.45898438 C56.62941554 9.08915772 54.22428638 8.88198228 51.59765625 8.90234375 C50.85322266 8.90556641 50.10878906 8.90878906 49.34179688 8.91210938 C48.58962891 8.92048828 47.83746094 8.92886719 47.0625 8.9375 C46.28326172 8.94201172 45.50402344 8.94652344 44.70117188 8.95117188 C42.80074732 8.96283092 40.90036294 8.98076123 39 9 C38.505 8.01 38.505 8.01 38 7 C35.51100583 6.63055041 33.11026522 6.38789182 30.60546875 6.21875 C29.86170486 6.15973511 29.11794098 6.10072021 28.35163879 6.03991699 C25.96418777 5.85093332 23.5760728 5.67419426 21.1875 5.5 C18.80968201 5.32543272 16.43230007 5.14798026 14.05549622 4.96008301 C12.57472616 4.84304109 11.09333026 4.73360688 9.6113739 4.63269043 C5.99001043 4.34682237 3.10608461 3.95276838 0 2 C0 1.34 0 0.68 0 0 Z " fill="#333333" transform="translate(169,36)"/>
<path d="M0 0 C0.66 0.33 1.32 0.66 2 1 C2.31620422 7.79839071 1.12676382 14.30983984 0 21 C-0.33 21 -0.66 21 -1 21 C-1 18.36 -1 15.72 -1 13 C-1.66 13 -2.32 13 -3 13 C-3.495 11.515 -3.495 11.515 -4 10 C-5.79419526 11.93521061 -7.58541329 13.8730354 -9.375 15.8125 C-10.13683594 16.63331055 -10.13683594 16.63331055 -10.9140625 17.47070312 C-13.15216303 19.90022015 -15.16379112 22.24568668 -17 25 C-17.66 25 -18.32 25 -19 25 C-19.22558594 25.54398438 -19.45117188 26.08796875 -19.68359375 26.6484375 C-21.41223787 29.73640119 -23.64550144 32.04454974 -26.0625 34.625 C-29.41533647 38.04209753 -29.41533647 38.04209753 -32 42 C-32.66 42 -33.32 42 -34 42 C-34.2165625 42.53367188 -34.433125 43.06734375 -34.65625 43.6171875 C-36.48819577 46.86569599 -38.95973388 49.427198 -41.5 52.125 C-41.99886719 52.66253906 -42.49773437 53.20007813 -43.01171875 53.75390625 C-44.97785496 55.86763446 -46.95863889 57.95863889 -49 60 C-49.99 58.68 -50.98 57.36 -52 56 C-51.58637207 55.56131592 -51.17274414 55.12263184 -50.74658203 54.6706543 C-48.87047194 52.67837396 -46.99770793 50.68297841 -45.125 48.6875 C-44.47402344 47.99720703 -43.82304687 47.30691406 -43.15234375 46.59570312 C-42.52714844 45.92861328 -41.90195312 45.26152344 -41.2578125 44.57421875 C-40.39373779 43.65515747 -40.39373779 43.65515747 -39.51220703 42.7175293 C-37.81445712 40.86632011 -37.81445712 40.86632011 -36 38 C-35.34 38 -34.68 38 -34 38 C-34 37.34 -34 36.68 -34 36 C-33.34 36 -32.68 36 -32 36 C-31.773125 35.46375 -31.54625 34.9275 -31.3125 34.375 C-29.54429911 31.17539839 -27.46329797 28.70962777 -25 26 C-24.34 26 -23.68 26 -23 26 C-23 25.34 -23 24.68 -23 24 C-22.34 24 -21.68 24 -21 24 C-21 23.34 -21 22.68 -21 22 C-20.34 22 -19.68 22 -19 22 C-18.731875 21.4225 -18.46375 20.845 -18.1875 20.25 C-16.97070811 17.94449957 -15.69666121 15.97943808 -14 14 C-13.34 14 -12.68 14 -12 14 C-11.73316406 13.41476563 -11.46632813 12.82953125 -11.19140625 12.2265625 C-9.98062783 9.96379627 -8.6463301 8.28116429 -6.9375 6.375 C-5.33621517 4.5818742 -4.07671842 3.15343684 -3 1 C-2.01 0.67 -1.02 0.34 0 0 Z " fill="#292929" transform="translate(301,111)"/>
<path d="M0 0 C0 3.45938419 -0.47378206 3.96000417 -2.5703125 6.5625 C-3.12976563 7.26689209 -3.68921875 7.97128418 -4.265625 8.69702148 C-4.87921875 9.45700439 -5.4928125 10.2169873 -6.125 11 C-7.42131044 12.63510382 -8.71552039 14.27187472 -10.0078125 15.91015625 C-10.67329102 16.75336426 -11.33876953 17.59657227 -12.02441406 18.46533203 C-15.09188279 22.40088076 -18.0520926 26.41198916 -21 30.4375 C-21.57202148 31.21802734 -22.14404297 31.99855469 -22.73339844 32.80273438 C-23.89743632 34.39260796 -25.06084588 35.98294175 -26.22363281 37.57373047 C-28.65884969 40.89989668 -31.10682574 44.21658162 -33.5546875 47.53344727 C-38.33481386 54.01059542 -43.09843059 60.49869229 -47.82421875 67.015625 C-51.4110924 71.93550196 -55.02952486 76.8321164 -58.64306641 81.73242188 C-64.10883348 89.14512126 -69.56172866 96.5671068 -75 104 C-75.72960937 104.99644531 -76.45921875 105.99289063 -77.2109375 107.01953125 C-80.27123948 111.2113242 -83.29943914 115.41769799 -86.25 119.6875 C-90.82110882 126.25518508 -95.67218788 132.61564686 -100.49267578 139.00097656 C-103.00198061 142.32883338 -105.50086472 145.66450292 -108 149 C-108.33 148.34 -108.66 147.68 -109 147 C-106.98417562 144.01741662 -104.96140103 141.03960742 -102.9375 138.0625 C-102.37611328 137.23169922 -101.81472656 136.40089844 -101.23632812 135.54492188 C-97.83752587 130.553538 -94.29948281 125.72668159 -90.56030273 120.98510742 C-88.66586992 118.57490038 -86.8549948 116.11174334 -85.0625 113.625 C-83.02401552 110.80187642 -80.98518048 107.9797941 -78.92578125 105.171875 C-75.18627239 100.07189721 -71.58665973 94.94129248 -68.2265625 89.58203125 C-67.82179687 89.05996094 -67.41703125 88.53789062 -67 88 C-66.34 88 -65.68 88 -65 88 C-64.79375 87.33871094 -64.5875 86.67742187 -64.375 85.99609375 C-62.48446182 81.87665403 -59.79917805 78.60655289 -57 75.0625 C-55.81989245 73.54430581 -54.64152895 72.02475449 -53.46484375 70.50390625 C-52.87944824 69.7473877 -52.29405273 68.99086914 -51.69091797 68.21142578 C-49.25033152 65.01956438 -46.89207059 61.77346397 -44.5625 58.5 C-44.15773438 57.9320874 -43.75296875 57.3641748 -43.3359375 56.77905273 C-40.48831819 52.75418881 -37.77055214 48.65640603 -35.15625 44.4765625 C-34.58390625 43.74566406 -34.58390625 43.74566406 -34 43 C-33.34 43 -32.68 43 -32 43 C-31.75378906 42.27941406 -31.50757812 41.55882812 -31.25390625 40.81640625 C-29.85727052 37.67941447 -28.16706944 35.54456267 -25.9375 32.9375 C-22.71686876 29.09534343 -19.61245373 25.21383403 -16.625 21.1875 C-13.14949718 16.50846617 -9.60281864 11.89423082 -6 7.3125 C-5.51869629 6.69979248 -5.03739258 6.08708496 -4.54150391 5.45581055 C-1.13603404 1.13603404 -1.13603404 1.13603404 0 0 Z " fill="#878787" transform="translate(156,95)"/>
<path d="M0 0 C0 0.33 0 0.66 0 1 C-9.34024346 2.40738529 -18.66089646 3.5270693 -28.0625 4.4375 C-37.36993599 5.36581624 -46.61227763 6.45531608 -55.85717773 7.87036133 C-65.24483634 9.26319173 -74.69118083 10.12208734 -84.13842773 10.99804688 C-85.37407471 11.11470703 -86.60972168 11.23136719 -87.8828125 11.3515625 C-88.99027832 11.45291504 -90.09774414 11.55426758 -91.23876953 11.65869141 C-94.08315401 11.91801761 -94.08315401 11.91801761 -97 13 C-98.92679125 13.25082914 -100.85896909 13.46112735 -102.79296875 13.6484375 C-103.96923828 13.76533936 -105.14550781 13.88224121 -106.35742188 14.00268555 C-108.25331055 14.1869812 -108.25331055 14.1869812 -110.1875 14.375 C-119.81435272 15.3306243 -129.40965519 16.40883874 -139 17.6875 C-147.06211564 18.75003156 -154.8569941 19.42941633 -163 19 C-160.29209511 16.29209511 -158.42746382 16.47764294 -154.640625 16.03515625 C-153.99246826 15.95735931 -153.34431152 15.87956238 -152.67651367 15.79940796 C-150.53526531 15.54506025 -148.39277502 15.30361987 -146.25 15.0625 C-144.75612589 14.88795541 -143.26231134 14.71290046 -141.76855469 14.53735352 C-130.69433945 13.24924556 -119.60478858 12.142182 -108.50683594 11.07885742 C-100.27430384 10.2748906 -92.11111393 9.22486142 -83.93383789 7.98632812 C-78.08538723 7.11288476 -72.27633166 6.58996358 -66.37109375 6.2421875 C-61.98004389 5.9267239 -57.63030925 5.37436418 -53.26733398 4.80273438 C-47.16755288 4.00547386 -41.05716407 3.33277274 -34.93847656 2.69750977 C-31.53927506 2.33352785 -28.30915666 1.83007674 -25 1 C-16.67656205 0.14114844 -8.36284437 -0.15360326 0 0 Z " fill="#B1B1B1" transform="translate(234,246)"/>
<path d="M0 0 C10.7737444 -0.35761761 21.36010206 0.74590982 32.0625 1.8125 C33.93966172 1.99483242 35.81685936 2.17679548 37.6940918 2.35839844 C49.27366546 3.4872797 60.84426433 4.68752237 72.38891602 6.13598633 C79.61549854 7.00060721 86.72548045 7.13140126 94 7 C92.02 6.34 90.04 5.68 88 5 C91.05269846 3.47365077 93.75845689 4.16205556 97.125 4.4375 C98.40632813 4.53933594 99.68765625 4.64117187 101.0078125 4.74609375 C102.48894531 4.87177734 102.48894531 4.87177734 104 5 C104 5.33 104 5.66 104 6 C101.36 6 98.72 6 96 6 C96.495 6.99 96.495 6.99 97 8 C100.53450072 9.17816691 103.93877594 9.40571703 107.625 9.68359375 C109.1510646 9.80766093 110.67710559 9.93201878 112.203125 10.05664062 C114.60586657 10.24875172 117.00874349 10.43816992 119.41210938 10.62231445 C121.73375754 10.80176207 124.05433212 10.99193931 126.375 11.18359375 C127.09381348 11.23575546 127.81262695 11.28791718 128.55322266 11.34165955 C132.13664441 11.64446535 133.9413821 11.9609214 137 14 C127.1772399 14.48220822 117.74674209 13.4823686 108.01611328 12.28027344 C96.93455747 10.9343102 85.83316573 9.98886312 74.70825195 9.09057617 C65.21616818 8.31771147 55.75961115 7.34866214 46.29846191 6.26229858 C42.41628884 5.81926818 38.53227288 5.39300919 34.6484375 4.96484375 C33.10285391 4.79371613 31.55728096 4.62249243 30.01171875 4.45117188 C27.67304682 4.19200572 25.33435687 3.93300865 22.99560547 3.67456055 C20.67149104 3.41767971 18.34745745 3.16007779 16.0234375 2.90234375 C15.33373871 2.82628403 14.64403992 2.7502243 13.93344116 2.67185974 C9.28328879 2.15523509 4.64146315 1.58852328 0 1 C0 0.67 0 0.34 0 0 Z " fill="#868686" transform="translate(73,30)"/>
<path d="M0 0 C0 0.66 0 1.32 0 2 C-0.66 2 -1.32 2 -2 2 C-2 2.66 -2 3.32 -2 4 C-3.328125 5.3046875 -3.328125 5.3046875 -5.25 6.875 C-9.03031141 10.07888095 -12.52670588 13.47311072 -16 17 C-19.92757237 20.97783941 -23.91621821 24.78141356 -28.18359375 28.3984375 C-30.78850322 30.6952394 -33.17041351 33.19194918 -35.5546875 35.71484375 C-37 37 -37 37 -39 37 C-39 37.66 -39 38.32 -39 39 C-39.66 39 -40.32 39 -41 39 C-41 39.66 -41 40.32 -41 41 C-41.66 41 -42.32 41 -43 41 C-43 41.66 -43 42.32 -43 43 C-43.66 43 -44.32 43 -45 43 C-45 43.66 -45 44.32 -45 45 C-45.66 45 -46.32 45 -47 45 C-47 45.66 -47 46.32 -47 47 C-48.328125 48.3046875 -48.328125 48.3046875 -50.25 49.875 C-56.17833782 54.89702718 -61.55174107 60.47001718 -67 66 C-67.99 65.67 -68.98 65.34 -70 65 C-66.87427529 61.84927872 -63.7450669 58.70206864 -60.61279297 55.55786133 C-59.55099139 54.49107703 -58.49009442 53.42339147 -57.43017578 52.35473633 C-52.02366963 46.90483518 -46.60706951 41.53498464 -40.765625 36.54516602 C-37.86543893 34.00710219 -35.19194557 31.25512897 -32.5 28.5 C-28.43790024 24.38651083 -24.33334611 20.43210299 -19.9140625 16.69921875 C-16.73516861 13.87713948 -13.82259421 10.79047723 -10.8828125 7.72265625 C-9 6 -9 6 -7 6 C-6.67 5.01 -6.34 4.02 -6 3 C-2.55555556 0 -2.55555556 0 0 0 Z " fill="#B2B2B2" transform="translate(267,83)"/>
<path d="M0 0 C0.66 0 1.32 0 2 0 C2.21092285 0.85940186 2.4218457 1.71880371 2.63916016 2.60424805 C7.61258774 22.97553467 7.61258774 22.97553467 13.1875 43.1875 C15.26056233 50.27639975 17.17959458 57.38844545 18.9375 64.5625 C19.16139404 65.45026123 19.38528809 66.33802246 19.6159668 67.25268555 C19.81359619 68.07808838 20.01122559 68.90349121 20.21484375 69.75390625 C20.39136475 70.47908447 20.56788574 71.2042627 20.74975586 71.95141602 C21.02820048 74.23085877 20.68843934 75.82509492 20 78 C19.66226563 76.90300781 19.32453125 75.80601562 18.9765625 74.67578125 C18.52614898 73.22132093 18.07562216 71.76689569 17.625 70.3125 C17.40328125 69.59126953 17.1815625 68.87003906 16.953125 68.12695312 C16.73398438 67.42119141 16.51484375 66.71542969 16.2890625 65.98828125 C16.09006348 65.34415283 15.89106445 64.70002441 15.68603516 64.03637695 C15.00263263 61.92420484 15.00263263 61.92420484 14.00073242 59.63354492 C12.89621263 56.72687136 12.29374726 53.92692836 11.69921875 50.875 C10.50232943 45.10221225 9.09124465 39.43168486 7.51953125 33.75 C7.30013885 32.95489014 7.08074646 32.15978027 6.85470581 31.34057617 C5.94507106 28.05591004 5.02968817 24.77291004 4.10766602 21.49169922 C3.42576929 19.05876787 2.75335174 16.62336736 2.08203125 14.1875 C1.87270462 13.45305664 1.66337799 12.71861328 1.44770813 11.96191406 C0.32665592 7.8717638 -0.22169924 4.23932201 0 0 Z " fill="#A6A6A6" transform="translate(60,58)"/>
<path d="M0 0 C14.94204161 -0.39149454 29.3046465 1.33841382 44 4 C43.67 4.99 43.34 5.98 43 7 C33.00123967 6.57018904 23.02757216 6.00305262 13.0625 5.0625 C11.7945459 4.95059326 11.7945459 4.95059326 10.50097656 4.83642578 C9.70788086 4.75763184 8.91478516 4.67883789 8.09765625 4.59765625 C7.40164307 4.53070557 6.70562988 4.46375488 5.98852539 4.39477539 C3.73875479 3.94813585 2.00056081 3.10432749 0 2 C0 1.34 0 0.68 0 0 Z " fill="#262626" transform="translate(169,36)"/>
<path d="M0 0 C2.34570942 3.51856414 2.13809795 3.9682517 1.375 7.9375 C1.17777344 8.98421875 0.98054688 10.0309375 0.77734375 11.109375 C0.52082031 12.39328125 0.26429688 13.6771875 0 15 C-0.33270185 16.73424648 -0.66468378 18.46863118 -0.99609375 20.203125 C-1.35044993 22.03146598 -1.70592204 23.85959103 -2.0625 25.6875 C-2.23668457 26.58525146 -2.41086914 27.48300293 -2.59033203 28.40795898 C-2.75774902 29.24657471 -2.92516602 30.08519043 -3.09765625 30.94921875 C-3.24726807 31.70549561 -3.39687988 32.46177246 -3.55102539 33.2409668 C-4 35 -4 35 -5 36 C-7.16976701 36.28902484 -9.34776869 36.51656996 -11.52734375 36.71875 C-12.19028946 36.78155151 -12.85323517 36.84435303 -13.53627014 36.90905762 C-15.66964471 37.1102312 -17.80353147 37.3052378 -19.9375 37.5 C-21.34183571 37.63109507 -22.74613315 37.76260078 -24.15039062 37.89453125 C-26.20573319 38.08759744 -28.26112909 38.27976311 -30.31689453 38.46827698 C-34.85945184 38.8854157 -39.39408942 39.35275253 -43.92553711 39.87670898 C-47.37467012 40.08170041 -50.59956225 39.56673962 -54 39 C-54 38.67 -54 38.34 -54 38 C-53.05680908 37.91435791 -52.11361816 37.82871582 -51.1418457 37.74047852 C-47.62862248 37.42019021 -44.11563711 37.09749755 -40.6027832 36.77319336 C-39.08496745 36.63356272 -37.56706424 36.4948793 -36.04907227 36.35717773 C-33.86190252 36.1586048 -31.67507429 35.9565805 -29.48828125 35.75390625 C-28.17384033 35.63345947 -26.85939941 35.5130127 -25.50512695 35.38891602 C-22.60948174 35.06762586 -19.84753573 34.59061862 -17 34 C-15.06348981 33.93466565 -13.12497139 33.91415697 -11.1875 33.9375 C-10.21167969 33.94652344 -9.23585938 33.95554688 -8.23046875 33.96484375 C-7.12638672 33.98224609 -7.12638672 33.98224609 -6 34 C-5.90203125 33.30519531 -5.8040625 32.61039063 -5.703125 31.89453125 C-4.13088336 21.20057736 -2.06703541 10.6074721 0 0 Z " fill="#666666" transform="translate(280,207)"/>
<path d="M0 0 C0.99 0.33 1.98 0.66 3 1 C1.625 2.5 1.625 2.5 0 4 C-0.66 4 -1.32 4 -2 4 C-2.26296875 4.60070312 -2.5259375 5.20140625 -2.796875 5.8203125 C-4.07394376 8.13396304 -5.20468543 9.22985567 -7.25 10.875 C-11.24243523 14.25487748 -14.94172856 17.85432098 -18.625 21.5625 C-19.22038574 22.16118896 -19.81577148 22.75987793 -20.42919922 23.37670898 C-22.28809991 25.24920174 -24.14447668 27.12416073 -26 29 C-43.5624485 46.75473808 -43.5624485 46.75473808 -52 53 C-50.70665529 50.15758238 -49.34409604 48.09224767 -47.14257812 45.88378906 C-46.56858276 45.30348938 -45.9945874 44.7231897 -45.40319824 44.12530518 C-44.47658386 43.20476349 -44.47658386 43.20476349 -43.53125 42.265625 C-42.89513794 41.62759949 -42.25902588 40.98957397 -41.6036377 40.33221436 C-40.26116613 38.98838426 -38.91617539 37.64706671 -37.56884766 36.30810547 C-35.50057835 34.25057535 -33.44322672 32.18255951 -31.38671875 30.11328125 C-30.08137029 28.80925375 -28.7754019 27.50584644 -27.46875 26.203125 C-26.85100708 25.58133362 -26.23326416 24.95954224 -25.59680176 24.31890869 C-21.22993073 20 -21.22993073 20 -19 20 C-19 19.34 -19 18.68 -19 18 C-18.34 18 -17.68 18 -17 18 C-16.34 16.68 -15.68 15.36 -15 14 C-14.34 14 -13.68 14 -13 14 C-13 13.34 -13 12.68 -13 12 C-12.34 12 -11.68 12 -11 12 C-11 11.34 -11 10.68 -11 10 C-10.34 10 -9.68 10 -9 10 C-9 9.34 -9 8.68 -9 8 C-7.28515625 6.30859375 -7.28515625 6.30859375 -5.0625 4.4375 C-4.33160156 3.81746094 -3.60070312 3.19742188 -2.84765625 2.55859375 C-2.23792969 2.04425781 -1.62820312 1.52992188 -1 1 C-0.67 0.67 -0.34 0.34 0 0 Z " fill="#414141" transform="translate(196,149)"/>
<path d="M0 0 C0 0.33 0 0.66 0 1 C-6.329995 2.02206593 -12.66325447 3.02067361 -19 4 C-19.71365723 4.11166504 -20.42731445 4.22333008 -21.16259766 4.33837891 C-29.83642443 5.67823833 -38.22425151 6.26638022 -47 6 C-47.09410156 6.63421875 -47.18820313 7.2684375 -47.28515625 7.921875 C-48.27670625 12.19150016 -49.84810274 16.17130234 -51.4375 20.25 C-51.75009766 21.07757813 -52.06269531 21.90515625 -52.38476562 22.7578125 C-52.84206055 23.93730469 -52.84206055 23.93730469 -53.30859375 25.140625 C-53.58501709 25.85766602 -53.86144043 26.57470703 -54.14624023 27.31347656 C-55 29 -55 29 -57 30 C-56.59054773 25.08657278 -55.50933977 21.62412918 -53.16503906 17.30273438 C-51.91230229 14.82666287 -50.87863664 12.32030659 -49.86328125 9.73828125 C-49.51177002 8.84794189 -49.16025879 7.95760254 -48.7980957 7.0402832 C-48.53472412 6.36698975 -48.27135254 5.69369629 -48 5 C-43.91093723 4.44645707 -39.82157307 3.89520923 -35.73193359 3.34594727 C-34.34513302 3.15938 -32.95841186 2.9722213 -31.57177734 2.78442383 C-9.68003367 -0.17925988 -9.68003367 -0.17925988 0 0 Z " fill="#8C8C8C" transform="translate(148,88)"/>
<path d="M0 0 C-2.74306961 2.74306961 -5.88261585 3.3011559 -9.5234375 4.3203125 C-10.28908524 4.54030914 -11.05473297 4.76030579 -11.84358215 4.98696899 C-14.35225598 5.70612163 -16.86348485 6.41583974 -19.375 7.125 C-21.09820373 7.61571756 -22.82126623 8.1069313 -24.54418945 8.59863281 C-27.15859566 9.34433282 -29.77322141 10.08920067 -32.38868713 10.83117676 C-37.81611706 12.37143682 -43.23358078 13.94196251 -48.64453125 15.5390625 C-49.9414837 15.91939911 -51.23851872 16.29945428 -52.53564453 16.67919922 C-54.92769857 17.38059974 -57.31807718 18.08774562 -59.70654297 18.80126953 C-60.76631348 19.10919434 -61.82608398 19.41711914 -62.91796875 19.734375 C-63.83344482 20.00475586 -64.7489209 20.27513672 -65.69213867 20.55371094 C-68 21 -68 21 -71 20 C-51.4460788 13.5708416 -31.79457969 7.63852935 -12 2 C-10.77192627 1.63447021 -9.54385254 1.26894043 -8.27856445 0.89233398 C-5.3189841 0.08681859 -3.03852188 -0.18415284 0 0 Z " fill="#696969" transform="translate(222,181)"/>
<path d="M0 0 C0.66 0.66 1.32 1.32 2 2 C1.28714844 2.96679688 0.57429688 3.93359375 -0.16015625 4.9296875 C-6.38646581 13.37072511 -6.38646581 13.37072511 -12.4375 21.9375 C-16.93786849 28.42716181 -21.73516418 34.69906673 -26.49267578 41.00097656 C-29.00198061 44.32883338 -31.50086472 47.66450292 -34 51 C-34.33 50.34 -34.66 49.68 -35 49 C-32.98417562 46.01741662 -30.96140103 43.03960742 -28.9375 40.0625 C-28.37611328 39.23169922 -27.81472656 38.40089844 -27.23632812 37.54492188 C-23.83872715 32.55530216 -20.30242474 27.72951342 -16.56469727 22.98950195 C-10.72854287 15.56887125 -5.3815828 7.75284272 0 0 Z " fill="#6E6E6E" transform="translate(82,193)"/>
<path d="M0 0 C0.66 0.33 1.32 0.66 2 1 C2.31620422 7.79839071 1.12676382 14.30983984 0 21 C-0.33 21 -0.66 21 -1 21 C-1 18.36 -1 15.72 -1 13 C-1.66 13 -2.32 13 -3 13 C-3.33 12.01 -3.66 11.02 -4 10 C-4.928125 10.99 -4.928125 10.99 -5.875 12 C-8 14 -8 14 -10 14 C-11.70680947 15.62553283 -13.37660195 17.29115995 -15 19 C-15.66 18.67 -16.32 18.34 -17 18 C-15.625 16 -15.625 16 -14 14 C-13.34 14 -12.68 14 -12 14 C-11.73316406 13.41476563 -11.46632813 12.82953125 -11.19140625 12.2265625 C-9.98062783 9.96379627 -8.6463301 8.28116429 -6.9375 6.375 C-5.33621517 4.5818742 -4.07671842 3.15343684 -3 1 C-2.01 0.67 -1.02 0.34 0 0 Z " fill="#454545" transform="translate(301,111)"/>
<path d="M0 0 C2 3 2 3 1.6875 5.0625 C1 7 1 7 0 9 C-0.66 9 -1.32 9 -2 9 C-2.25523438 9.72574219 -2.51046875 10.45148438 -2.7734375 11.19921875 C-4.06801074 14.1552984 -5.60455104 16.30564666 -7.625 18.8125 C-8.25664063 19.60269531 -8.88828125 20.39289063 -9.5390625 21.20703125 C-10.02117187 21.79871094 -10.50328125 22.39039063 -11 23 C-11.99 22.67 -12.98 22.34 -14 22 C-14.33 22.66 -14.66 23.32 -15 24 C-15.66 23.67 -16.32 23.34 -17 23 C-15.88321917 21.3278148 -14.75633648 19.66237197 -13.625 18 C-12.99851562 17.071875 -12.37203125 16.14375 -11.7265625 15.1875 C-11.15679687 14.465625 -10.58703125 13.74375 -10 13 C-9.34 13 -8.68 13 -8 13 C-7.79375 12.34 -7.5875 11.68 -7.375 11 C-5.48847129 6.88393737 -2.79432021 3.5412297 0 0 Z " fill="#2B2B2B" transform="translate(124,129)"/>
<path d="M0 0 C0.33 0 0.66 0 1 0 C0.44428115 8.77213238 -0.78425475 17.29729145 -2.375 25.9375 C-2.58382813 27.10990234 -2.79265625 28.28230469 -3.0078125 29.49023438 C-4.43789198 37.38619153 -6.12704171 45.19762872 -8 53 C-8.33 53 -8.66 53 -9 53 C-9.15169696 47.24687267 -8.65301643 42.04225638 -7.5390625 36.40625 C-7.38843353 35.61528931 -7.23780457 34.82432861 -7.08261108 34.00939941 C-6.76488507 32.34821709 -6.44367896 30.68769691 -6.11914062 29.02783203 C-5.62660691 26.50822033 -5.14438986 23.98680798 -4.6640625 21.46484375 C-4.35216203 19.84103056 -4.03968125 18.21732871 -3.7265625 16.59375 C-3.58376862 15.85080688 -3.44097473 15.10786377 -3.29385376 14.34240723 C-2.34813756 9.51674423 -1.22679969 4.7621584 0 0 Z " fill="#9B9B9B" transform="translate(290,157)"/>
<path d="M0 0 C0 0.33 0 0.66 0 1 C-15.63727413 2.94892713 -31.31823849 4.46187735 -47 6 C-46.34 4.68 -45.68 3.36 -45 2 C-44.67 2.66 -44.34 3.32 -44 4 C-43.02969849 3.81280396 -43.02969849 3.81280396 -42.03979492 3.62182617 C-34.82292155 2.26517457 -27.59999253 1.20853936 -20.3125 0.3125 C-18.69891602 0.09883789 -18.69891602 0.09883789 -17.05273438 -0.11914062 C-11.09987885 -0.85185585 -5.91068457 -1.06492382 0 0 Z " fill="#434343" transform="translate(74,265)"/>
<path d="M0 0 C0 0.66 0 1.32 0 2 C-0.66 2 -1.32 2 -2 2 C-2 2.66 -2 3.32 -2 4 C-3.328125 5.3046875 -3.328125 5.3046875 -5.25 6.875 C-9.03030921 10.07887908 -12.52673364 13.47307978 -16 17 C-20.49246659 21.55053441 -25.08850456 25.89745675 -30 30 C-30.66 29.34 -31.32 28.68 -32 28 C-31.51644043 27.5467334 -31.03288086 27.0934668 -30.53466797 26.62646484 C-28.31382304 24.54365952 -26.09440353 22.45934115 -23.875 20.375 C-23.11445313 19.66214844 -22.35390625 18.94929688 -21.5703125 18.21484375 C-18.17391375 15.02340009 -14.81050887 11.82706342 -11.5703125 8.4765625 C-9 6 -9 6 -7 6 C-6.67 5.01 -6.34 4.02 -6 3 C-2.55555556 0 -2.55555556 0 0 0 Z " fill="#A8A8A8" transform="translate(267,83)"/>
<path d="M0 0 C6.08144434 -0.11261934 11.96008146 0.31343476 18 1 C19.30517578 1.14308594 19.30517578 1.14308594 20.63671875 1.2890625 C22.75823857 1.52219655 24.87918343 1.76055297 27 2 C24.7596452 4.43704548 22.94610509 5.86886056 19.61865234 6.33007812 C16.79926726 6.39328618 14.00583306 6.34842399 11.1875 6.25 C10.20845703 6.23195313 9.22941406 6.21390625 8.22070312 6.1953125 C5.81279229 6.14832887 3.40690665 6.08265694 1 6 C2.32 5.34 3.64 4.68 5 4 C5 3.34 5 2.68 5 2 C3.35 1.67 1.7 1.34 0 1 C0 0.67 0 0.34 0 0 Z " fill="#363636" transform="translate(207,39)"/>
<path d="M0 0 C0 3.95782286 -1.24729927 4.66724162 -3.9375 7.5 C-9.66665247 13.67194185 -15.05505869 20.10750901 -20.13671875 26.82421875 C-20.75160156 27.54222656 -21.36648438 28.26023438 -22 29 C-22.66 29 -23.32 29 -24 29 C-24.28875 29.61875 -24.5775 30.2375 -24.875 30.875 C-26 33 -26 33 -28 35 C-30.125 34.625 -30.125 34.625 -32 34 C-31.38125 33.9175 -30.7625 33.835 -30.125 33.75 C-29.42375 33.5025 -28.7225 33.255 -28 33 C-27.74089844 32.45085937 -27.48179687 31.90171875 -27.21484375 31.3359375 C-25.49832294 28.03536051 -22.97872131 25.54962729 -20.4375 22.875 C-16.81366093 19.23596593 -16.81366093 19.23596593 -14 15 C-13.34 15 -12.68 15 -12 15 C-11.66355469 14.18789062 -11.66355469 14.18789062 -11.3203125 13.359375 C-9.58851134 10.26467706 -7.28380732 7.82074395 -4.875 5.25 C-4.40707031 4.74339844 -3.93914062 4.23679688 -3.45703125 3.71484375 C-2.30873459 2.47280859 -1.15491328 1.23588506 0 0 Z " fill="#9C9C9C" transform="translate(281,138)"/>
<path d="M0 0 C0 0.33 0 0.66 0 1 C-25.9701529 4.58165209 -25.9701529 4.58165209 -37 4 C-33.25326056 0.25326056 -26.96544132 0.85183173 -21.875 0.3125 C-20.05742188 0.09883789 -20.05742188 0.09883789 -18.203125 -0.11914062 C-11.89884551 -0.80931501 -6.24717357 -1.16063449 0 0 Z " fill="#7E7E7E" transform="translate(108,261)"/>
<path d="M0 0 C2.34570942 3.51856414 2.13809795 3.9682517 1.375 7.9375 C1.1790625 8.98292969 0.983125 10.02835938 0.78125 11.10546875 C0.5234375 12.39066406 0.265625 13.67585937 0 15 C-0.343995 16.7460455 -0.68772681 18.49214286 -1.03125 20.23828125 C-2.00525834 25.16204629 -2.99742414 30.08197868 -4 35 C-6.475 35.495 -6.475 35.495 -9 36 C-7.515 35.505 -7.515 35.505 -6 35 C-5.88785156 33.79472656 -5.77570313 32.58945313 -5.66015625 31.34765625 C-4.95227348 24.97671133 -3.67911965 18.72211261 -2.4375 12.4375 C-2.20353516 11.23802734 -1.96957031 10.03855469 -1.72851562 8.80273438 C-1.15556853 5.8678421 -0.57932273 2.93363922 0 0 Z " fill="#424242" transform="translate(280,207)"/>
<path d="M0 0 C0.66 0 1.32 0 2 0 C3.00613112 3.87543969 4.00269529 7.75320496 4.99072266 11.63330078 C5.32766332 12.95101984 5.66714315 14.26809249 6.00927734 15.58447266 C6.50255854 17.48425243 6.98575213 19.38664231 7.46875 21.2890625 C7.90864258 23.00150146 7.90864258 23.00150146 8.35742188 24.74853516 C8.98545983 27.9264263 9.11975744 30.77082617 9 34 C5.2433573 30.2433573 4.70866066 24.28104508 3.375 19.25 C3.05015625 18.06921875 2.7253125 16.8884375 2.390625 15.671875 C2.08382812 14.5271875 1.77703125 13.3825 1.4609375 12.203125 C1.18040527 11.15801758 0.89987305 10.11291016 0.61083984 9.03613281 C-0.01170704 5.94181107 -0.11000891 3.14731382 0 0 Z " fill="#BEBEBE" transform="translate(60,58)"/>
<path d="M0 0 C0.33 0.99 0.66 1.98 1 3 C0.43410156 3.55429688 -0.13179688 4.10859375 -0.71484375 4.6796875 C-1.44832031 5.40414062 -2.18179687 6.12859375 -2.9375 6.875 C-3.66839844 7.59429687 -4.39929688 8.31359375 -5.15234375 9.0546875 C-7.05667999 10.87027192 -7.05667999 10.87027192 -8 13 C-8.66 13 -9.32 13 -10 13 C-10.268125 13.639375 -10.53625 14.27875 -10.8125 14.9375 C-12 17 -12 17 -15 18 C-14.67 16.02 -14.34 14.04 -14 12 C-13.34 12 -12.68 12 -12 12 C-12 11.34 -12 10.68 -12 10 C-11.34 10 -10.68 10 -10 10 C-9.67 9.01 -9.34 8.02 -9 7 C-7.34928604 5.97388051 -5.68029994 4.97691857 -4 4 C-2.63015802 2.70420353 -1.2848951 1.38007251 0 0 Z " fill="#252525" transform="translate(292,123)"/>
<path d="M0 0 C1.90234375 0.828125 1.90234375 0.828125 4.65234375 2.328125 C4.65234375 2.658125 4.65234375 2.988125 4.65234375 3.328125 C-10.12897743 3.51263525 -10.12897743 3.51263525 -16.34765625 2.328125 C-16.34765625 1.668125 -16.34765625 1.008125 -16.34765625 0.328125 C-11.76644098 -1.96248263 -4.83119419 -1.38263794 0 0 Z " fill="#080808" transform="translate(163.34765625,34.671875)"/>
<path d="M0 0 C0.99 0.33 1.98 0.66 3 1 C1.625 2.5 1.625 2.5 0 4 C-0.66 4 -1.32 4 -2 4 C-2.38091797 4.88751953 -2.38091797 4.88751953 -2.76953125 5.79296875 C-4.13553212 8.2430973 -5.52936211 9.5359582 -7.6875 11.3125 C-11.67494857 14.68032676 -15.36251736 18.26021316 -19 22 C-19.33 21.34 -19.66 20.68 -20 20 C-19.67 19.34 -19.34 18.68 -19 18 C-18.34 18 -17.68 18 -17 18 C-16.34 16.68 -15.68 15.36 -15 14 C-14.34 14 -13.68 14 -13 14 C-13 13.34 -13 12.68 -13 12 C-12.34 12 -11.68 12 -11 12 C-11 11.34 -11 10.68 -11 10 C-10.34 10 -9.68 10 -9 10 C-9 9.34 -9 8.68 -9 8 C-7.28515625 6.30859375 -7.28515625 6.30859375 -5.0625 4.4375 C-4.33160156 3.81746094 -3.60070312 3.19742188 -2.84765625 2.55859375 C-2.23792969 2.04425781 -1.62820312 1.52992188 -1 1 C-0.67 0.67 -0.34 0.34 0 0 Z " fill="#797979" transform="translate(196,149)"/>
<path d="M0 0 C0.99 0.66 1.98 1.32 3 2 C3.1875 4.625 3.1875 4.625 3 7 C2.34 6.34 1.68 5.68 1 5 C0.071875 5.99 0.071875 5.99 -0.875 7 C-3 9 -3 9 -5 9 C-6.70680947 10.62553283 -8.37660195 12.29115995 -10 14 C-10.66 13.67 -11.32 13.34 -12 13 C-10.625 11 -10.625 11 -9 9 C-8.34 9 -7.68 9 -7 9 C-6.773125 8.443125 -6.54625 7.88625 -6.3125 7.3125 C-4.64103234 4.36753316 -2.44723648 2.31843456 0 0 Z " fill="#323232" transform="translate(296,116)"/>
<path d="M0 0 C0.66 0.66 1.32 1.32 2 2 C-3.64575957 9.34971115 -9.29830174 16.69351911 -15 24 C-15 20.56097233 -14.43783119 19.84469365 -12.48046875 17.12890625 C-11.95259766 16.38962891 -11.42472656 15.65035156 -10.88085938 14.88867188 C-10.32205078 14.12103516 -9.76324219 13.35339844 -9.1875 12.5625 C-8.64029297 11.79873047 -8.09308594 11.03496094 -7.52929688 10.24804688 C-5.05619856 6.80369541 -2.55074938 3.38729309 0 0 Z " fill="#3C3C3C" transform="translate(46,243)"/>
<path d="M0 0 C0.79296875 1.6015625 0.79296875 1.6015625 1 4 C-0.48372712 6.30141241 -1.94455232 8.28827092 -3.6875 10.375 C-4.58910558 11.48546673 -5.48886161 12.59743782 -6.38671875 13.7109375 C-6.82806152 14.25202148 -7.2694043 14.79310547 -7.72412109 15.35058594 C-8.98979054 16.98680154 -10.10150263 18.66676298 -11.20703125 20.4140625 C-11.79871094 21.26742187 -12.39039062 22.12078125 -13 23 C-13.66 23 -14.32 23 -15 23 C-13.54997977 18.89160936 -11.6020866 15.49655387 -9 12 C-8.34 12 -7.68 12 -7 12 C-6.6596875 10.9790625 -6.6596875 10.9790625 -6.3125 9.9375 C-4.64427643 6.20385676 -2.44270392 3.27836579 0 0 Z " fill="#808080" transform="translate(98,171)"/>
<path d="M0 0 C0.68530273 1.72949219 0.68530273 1.72949219 1 4 C-0.17163086 6.10644531 -0.17163086 6.10644531 -1.96484375 8.328125 C-2.91713867 9.52695313 -2.91713867 9.52695313 -3.88867188 10.75 C-4.56478516 11.575 -5.24089844 12.4 -5.9375 13.25 C-6.60974609 14.09046875 -7.28199219 14.9309375 -7.97460938 15.796875 C-9.63863691 17.87395902 -11.31388112 19.94084037 -13 22 C-13.33 21.34 -13.66 20.68 -14 20 C-11.85590155 16.85298094 -9.70943188 13.7075866 -7.5625 10.5625 C-6.64500977 9.21575195 -6.64500977 9.21575195 -5.70898438 7.84179688 C-5.12568359 6.98779297 -4.54238281 6.13378906 -3.94140625 5.25390625 C-3.40201416 4.46314697 -2.86262207 3.6723877 -2.30688477 2.85766602 C-1 1 -1 1 0 0 Z " fill="#585858" transform="translate(61,222)"/>
<path d="M0 0 C6.93 0.33 13.86 0.66 21 1 C21 1.33 21 1.66 21 2 C18.03 2 15.06 2 12 2 C12 2.66 12 3.32 12 4 C12.99 4.33 13.98 4.66 15 5 C10.05 4.67 5.1 4.34 0 4 C0 3.67 0 3.34 0 3 C1.65 2.67 3.3 2.34 5 2 C3.35 1.67 1.7 1.34 0 1 C0 0.67 0 0.34 0 0 Z " fill="#3B3B3B" transform="translate(253,44)"/>
<path d="M0 0 C12.66970387 -0.18451025 12.66970387 -0.18451025 18 1 C17.67 1.66 17.34 2.32 17 3 C14.54101345 3.08076963 12.08466258 3.14037143 9.625 3.1875 C8.57699219 3.22520508 8.57699219 3.22520508 7.5078125 3.26367188 C5.4765625 3.29296875 5.4765625 3.29296875 2 3 C1.34 2.01 0.68 1.02 0 0 Z " fill="#090909" transform="translate(241,44)"/>
<path d="M0 0 C1.02493529 2.66858151 1.06737786 3.80702744 0.109375 6.55078125 C-0.33921875 7.46214844 -0.7878125 8.37351562 -1.25 9.3125 C-1.71277344 10.27414063 -2.17554687 11.23578125 -2.65234375 12.2265625 C-3.09707031 13.14179688 -3.54179688 14.05703125 -4 15 C-5.02592243 17.32329515 -6.01208981 19.66021271 -7 22 C-7.66 22 -8.32 22 -9 22 C-9.33 20.68 -9.66 19.36 -10 18 C-9.34 18 -8.68 18 -8 18 C-7.25943359 16.17662109 -7.25943359 16.17662109 -6.50390625 14.31640625 C-5.85690291 12.7317169 -5.2097603 11.14708441 -4.5625 9.5625 C-4.23701172 8.76005859 -3.91152344 7.95761719 -3.57617188 7.13085938 C-3.10727539 5.98520508 -3.10727539 5.98520508 -2.62890625 4.81640625 C-2.34088135 4.10943604 -2.05285645 3.40246582 -1.75610352 2.67407227 C-1 1 -1 1 0 0 Z " fill="#454545" transform="translate(90,118)"/>
<path d="M0 0 C0 3.8212526 -1.47133792 4.86228993 -4.0703125 7.48046875 C-4.62460937 8.02316406 -5.17890625 8.56585938 -5.75 9.125 C-6.28882813 9.67542969 -6.82765625 10.22585937 -7.3828125 10.79296875 C-10.17488751 13.56461394 -12.13071293 15.28141812 -16 16 C-11.17917294 10.03739811 -5.77505724 5.03320206 0 0 Z " fill="#606060" transform="translate(270,69)"/>
<path d="M0 0 C6.11485027 -0.09706112 11.93303301 0.22959149 18 1 C17.67 1.66 17.34 2.32 17 3 C14.72923158 3.02699725 12.45837179 3.04639453 10.1875 3.0625 C8.29064453 3.07990234 8.29064453 3.07990234 6.35546875 3.09765625 C3 3 3 3 0 2 C0 1.34 0 0.68 0 0 Z " fill="#030303" transform="translate(265,46)"/>
<path d="M0 0 C0.66 0.33 1.32 0.66 2 1 C-2.16048113 5.84979161 -6.31778162 10.64444802 -11 15 C-11.66 15 -12.32 15 -13 15 C-13 14.34 -13 13.68 -13 13 C-12.34 13 -11.68 13 -11 13 C-11 12.34 -11 11.68 -11 11 C-10.34 11 -9.68 11 -9 11 C-8.773125 10.443125 -8.54625 9.88625 -8.3125 9.3125 C-6.62449964 6.33840412 -4.53323483 4.27991135 -2 2 C-1.34 2 -0.68 2 0 2 C0 1.34 0 0.68 0 0 Z " fill="#646464" transform="translate(140,196)"/>
<path d="M0 0 C-1.44077046 3.36179774 -3.24750021 5.59156268 -6 8 C-6.66 8 -7.32 8 -8 8 C-8 8.66 -8 9.32 -8 10 C-8.66 10 -9.32 10 -10 10 C-10 10.66 -10 11.32 -10 12 C-10.66 12 -11.32 12 -12 12 C-12 12.66 -12 13.32 -12 14 C-12.99 14.33 -13.98 14.66 -15 15 C-13.387672 10.96918 -10.53765404 8.24055863 -7.5 5.25 C-7.00113281 4.74339844 -6.50226563 4.23679687 -5.98828125 3.71484375 C-2.25341139 0 -2.25341139 0 0 0 Z " fill="#BABABA" transform="translate(236,112)"/>
<path d="M0 0 C0 0.33 0 0.66 0 1 C-4.4378561 2.11165232 -8.76956386 2.11527763 -13.3125 2.0625 C-14.05306641 2.05798828 -14.79363281 2.05347656 -15.55664062 2.04882812 C-17.37112899 2.03712175 -19.18557534 2.01918898 -21 2 C-14.32427601 -1.68367653 -7.31958525 -1.19775031 0 0 Z " fill="#5B5B5B" transform="translate(74,265)"/>
<path d="M0 0 C0 0.33 0 0.66 0 1 C-4.51815281 1.88277755 -8.77512694 2.10589503 -13.375 2.0625 C-15.24285156 2.04896484 -15.24285156 2.04896484 -17.1484375 2.03515625 C-18.55996094 2.01775391 -18.55996094 2.01775391 -20 2 C-15.24695945 -2.75304055 -6.13637349 -1.02272892 0 0 Z " fill="#8B8B8B" transform="translate(108,261)"/>
<path d="M0 0 C-2.57498808 2.57498808 -4.83827942 3.06266755 -8.3125 4.125 C-9.44300781 4.47820312 -10.57351562 4.83140625 -11.73828125 5.1953125 C-14.66386802 5.91707403 -17.01048079 6.16826562 -20 6 C-19 4 -19 4 -16.015625 2.9296875 C-14.77296875 2.58164063 -13.5303125 2.23359375 -12.25 1.875 C-11.01765625 1.52179688 -9.7853125 1.16859375 -8.515625 0.8046875 C-5.50163585 0.11481887 -3.065036 -0.17547916 0 0 Z " fill="#A8A8A8" transform="translate(222,181)"/>
<path d="M0 0 C0.66 0.66 1.32 1.32 2 2 C-2 7.33333333 -6 12.66666667 -10 18 C-10.33 17.01 -10.66 16.02 -11 15 C-10.10375977 13.2824707 -10.10375977 13.2824707 -8.69140625 11.42578125 C-8.19189453 10.75869141 -7.69238281 10.09160156 -7.17773438 9.40429688 C-6.64470703 8.71400391 -6.11167969 8.02371094 -5.5625 7.3125 C-5.03333984 6.61060547 -4.50417969 5.90871094 -3.95898438 5.18554688 C-2.64835509 3.44984864 -1.32856735 1.72198267 0 0 Z " fill="#838383" transform="translate(110,155)"/>
<path d="M0 0 C0.80078125 1.58203125 0.80078125 1.58203125 1 4 C-0.52303487 6.41269935 -2.01905579 8.49605193 -3.8125 10.6875 C-4.27720703 11.28111328 -4.74191406 11.87472656 -5.22070312 12.48632812 C-8.68133574 16.84066787 -8.68133574 16.84066787 -11 18 C-9.56900493 13.88682568 -7.54821899 10.78556175 -4.9375 7.3125 C-2.24079956 3.79692983 -2.24079956 3.79692983 0 0 Z " fill="#8E8E8E" transform="translate(122,138)"/>
<path d="M0 0 C0 0.66 0 1.32 0 2 C-8.261959 5.62870159 -8.261959 5.62870159 -13 4 C-8.92504479 -0.07495521 -5.70163125 -0.21929351 0 0 Z " fill="#060606" transform="translate(205,183)"/>
<path d="M0 0 C2.47271655 3.70907482 2.01904581 4.78598177 1.25 9.0625 C0.97929687 10.65771484 0.97929687 10.65771484 0.703125 12.28515625 C0 15 0 15 -2 17 C-2.21824777 10.9981863 -1.5056904 5.80766296 0 0 Z " fill="#6E6E6E" transform="translate(280,207)"/>
<path d="M0 0 C1.4370809 -0.05422947 2.87475462 -0.09289723 4.3125 -0.125 C5.11300781 -0.14820313 5.91351563 -0.17140625 6.73828125 -0.1953125 C9 0 9 0 12 2 C11 3 11 3 8.71484375 3.09765625 C7.34005859 3.08025391 7.34005859 3.08025391 5.9375 3.0625 C5.01839844 3.05347656 4.09929687 3.04445312 3.15234375 3.03515625 C2.44207031 3.02355469 1.73179687 3.01195312 1 3 C0.67 2.01 0.34 1.02 0 0 Z " fill="#020202" transform="translate(169,36)"/>
<path d="M0 0 C0.66 0.99 1.32 1.98 2 3 C1.34 3 0.68 3 0 3 C0 3.66 0 4.32 0 5 C-2.8125 7.6875 -2.8125 7.6875 -6 10 C-6.99 9.67 -7.98 9.34 -9 9 C-6.03 6.03 -3.06 3.06 0 0 Z " fill="#A5A5A5" transform="translate(220,125)"/>
<path d="M0 0 C0.66 0.33 1.32 0.66 2 1 C1.2169216 3.14898232 0.42328757 5.29412095 -0.375 7.4375 C-0.81585938 8.63246094 -1.25671875 9.82742187 -1.7109375 11.05859375 C-3 14 -3 14 -5 15 C-4.5188509 9.22621075 -2.81532819 5.04140164 0 0 Z " fill="#4F4F4F" transform="translate(96,103)"/>
<path d="M0 0 C0.33 0.99 0.66 1.98 1 3 C-1.64 5.64 -4.28 8.28 -7 11 C-7.33 9.68 -7.66 8.36 -8 7 C-5.36 4.69 -2.72 2.38 0 0 Z " fill="#0A0A0A" transform="translate(292,123)"/>
<path d="M0 0 C0.33 0.99 0.66 1.98 1 3 C-0.11878383 4.17262904 -1.24523051 5.33795138 -2.375 6.5 C-3.00148437 7.1496875 -3.62796875 7.799375 -4.2734375 8.46875 C-6 10 -6 10 -8 10 C-6.34908222 5.70761377 -3.26245434 3.1206085 0 0 Z " fill="#555555" transform="translate(175,169)"/>
<path d="M0 0 C1.83979073 2.7596861 2.48323221 4.29741882 3.1875 7.4375 C3.36667969 8.19933594 3.54585938 8.96117187 3.73046875 9.74609375 C4.0154963 12.12958496 3.72875415 13.73104204 3 16 C2.30178583 13.89936424 1.61675528 11.79434263 0.9375 9.6875 C0.55464844 8.51574219 0.17179687 7.34398438 -0.22265625 6.13671875 C-1 3 -1 3 0 0 Z " fill="#888888" transform="translate(77,120)"/>
<path d="M0 0 C0 0.66 0 1.32 0 2 C-0.66 2 -1.32 2 -2 2 C-2 2.66 -2 3.32 -2 4 C-4.8125 6.6875 -4.8125 6.6875 -8 9 C-8.99 8.67 -9.98 8.34 -11 8 C-10.360625 7.731875 -9.72125 7.46375 -9.0625 7.1875 C-6.66868314 6.11332248 -6.66868314 6.11332248 -6 3 C-2.55555556 0 -2.55555556 0 0 0 Z " fill="#9D9D9D" transform="translate(267,83)"/>
<path d="M0 0 C0.66 0 1.32 0 2 0 C2 2.97 2 5.94 2 9 C1.01 9 0.02 9 -1 9 C-1.125 2.25 -1.125 2.25 0 0 Z " fill="#040404" transform="translate(298,124)"/>
<path d="M0 0 C-0.33 0.99 -0.66 1.98 -1 3 C-3.97 2.67 -6.94 2.34 -10 2 C-10 1.34 -10 0.68 -10 0 C-6.30581799 -1.231394 -3.7943739 -0.64432764 0 0 Z " fill="#040404" transform="translate(213,40)"/>
<path d="M0 0 C0.33 0.99 0.66 1.98 1 3 C0.34 3 -0.32 3 -1 3 C-1.433125 3.928125 -1.433125 3.928125 -1.875 4.875 C-3 7 -3 7 -5 9 C-7.125 8.625 -7.125 8.625 -9 8 C-8.38125 7.9175 -7.7625 7.835 -7.125 7.75 C-4.84645565 7.20721701 -4.84645565 7.20721701 -3.9375 5.125 C-3.4734375 4.073125 -3.4734375 4.073125 -3 3 C-1.375 1.25 -1.375 1.25 0 0 Z " fill="#6D6D6D" transform="translate(258,164)"/>
<path d="M0 0 C0.66 0 1.32 0 2 0 C0.61811547 3.21043882 -0.92421903 5.04936365 -3.625 7.25 C-4.57246094 8.03117188 -4.57246094 8.03117188 -5.5390625 8.828125 C-6.02117187 9.21484375 -6.50328125 9.6015625 -7 10 C-6.67 8.68 -6.34 7.36 -6 6 C-5.34 6 -4.68 6 -4 6 C-3.34 4.68 -2.68 3.36 -2 2 C-1.34 2 -0.68 2 0 2 C0 1.34 0 0.68 0 0 Z " fill="#6E6E6E" transform="translate(183,161)"/>
<path d="M0 0 C-0.33 3.63 -0.66 7.26 -1 11 C-1.66 10.67 -2.32 10.34 -3 10 C-3.8125 6.625 -3.8125 6.625 -4 3 C-1.87096774 0 -1.87096774 0 0 0 Z " fill="#5E5E5E" transform="translate(298,120)"/>
<path d="M0 0 C0.99 0.33 1.98 0.66 3 1 C0.69 3.31 -1.62 5.62 -4 8 C-4.66 7.34 -5.32 6.68 -6 6 C-4.02 4.02 -2.04 2.04 0 0 Z " fill="#AFAFAF" transform="translate(241,105)"/>
<path d="M0 0 C0.66 0.33 1.32 0.66 2 1 C-0.64 3.64 -3.28 6.28 -6 9 C-6.66 8.34 -7.32 7.68 -8 7 C-5.36 4.69 -2.72 2.38 0 0 Z " fill="#707070" transform="translate(294,56)"/>
<path d="M0 0 C0.33 0.66 0.66 1.32 1 2 C3.31 1.34 5.62 0.68 8 0 C8.33 0.66 8.66 1.32 9 2 C5.12315913 3.19287411 2.08378077 4 -2 4 C-1.34 2.68 -0.68 1.36 0 0 Z " fill="#252525" transform="translate(143,201)"/>
<path d="M0 0 C-1.29299694 2.88437779 -2.65941363 4.87219421 -5 7 C-5.99 6.67 -6.98 6.34 -8 6 C-7.0479279 4.99403703 -6.08812654 3.99538437 -5.125 3 C-4.59132812 2.443125 -4.05765625 1.88625 -3.5078125 1.3125 C-2 0 -2 0 0 0 Z " fill="#A3A3A3" transform="translate(205,142)"/>
<path d="M0 0 C2.97 0 5.94 0 9 0 C6.75 2.0625 6.75 2.0625 4 4 C1.6875 3.75 1.6875 3.75 0 3 C0.66 2.67 1.32 2.34 2 2 C1.34 1.34 0.68 0.68 0 0 Z " fill="#545454" transform="translate(225,41)"/>
<path d="M0 0 C0.75 1.6875 0.75 1.6875 1 4 C-0.8125 6.75 -0.8125 6.75 -3 9 C-3.66 9 -4.32 9 -5 9 C-3.50163895 5.88801935 -1.80066242 2.9465385 0 0 Z " fill="#797979" transform="translate(98,171)"/>
<path d="M0 0 C0.99 0.33 1.98 0.66 3 1 C1.625 2.5 1.625 2.5 0 4 C-0.66 4 -1.32 4 -2 4 C-2.33 4.99 -2.66 5.98 -3 7 C-3.33 6.01 -3.66 5.02 -4 4 C-2.68 2.68 -1.36 1.36 0 0 Z " fill="#838383" transform="translate(196,149)"/>
<path d="M0 0 C0.66 0 1.32 0 2 0 C2.625 3.375 2.625 3.375 3 7 C2.34 7.66 1.68 8.32 1 9 C0.67 6.03 0.34 3.06 0 0 Z " fill="#A6A6A6" transform="translate(60,58)"/>
<path d="" fill="#FFFFFF" transform="translate(0,0)"/>
<path d="" fill="#FFFFFF" transform="translate(0,0)"/>
<path d="" fill="#FFFFFF" transform="translate(0,0)"/>
<path d="" fill="#FFFFFF" transform="translate(0,0)"/>
<path d="" fill="#FFFFFF" transform="translate(0,0)"/>
<path d="" fill="#FFFFFF" transform="translate(0,0)"/>
<path d="" fill="#FFFFFF" transform="translate(0,0)"/>
<path d="" fill="#FFFFFF" transform="translate(0,0)"/>
<path d="" fill="#FFFFFF" transform="translate(0,0)"/>
<path d="" fill="#FFFFFF" transform="translate(0,0)"/>
<path d="" fill="#FFFFFF" transform="translate(0,0)"/>
<path d="" fill="#FFFFFF" transform="translate(0,0)"/>
<path d="" fill="#FFFFFF" transform="translate(0,0)"/>
<path d="" fill="#FFFFFF" transform="translate(0,0)"/>
<path d="" fill="#FFFFFF" transform="translate(0,0)"/>
<path d="" fill="#FFFFFF" transform="translate(0,0)"/>
<path d="" fill="#FFFFFF" transform="translate(0,0)"/>
<path d="" fill="#FFFFFF" transform="translate(0,0)"/>
<path d="" fill="#FFFFFF" transform="translate(0,0)"/>
<path d="" fill="#FFFFFF" transform="translate(0,0)"/>
<path d="" fill="#FFFFFF" transform="translate(0,0)"/>
<path d="" fill="#FFFFFF" transform="translate(0,0)"/>
<path d="" fill="#FFFFFF" transform="translate(0,0)"/>
<path d="" fill="#FFFFFF" transform="translate(0,0)"/>
</svg>
